<svg width="18" height="12" viewBox="0 0 18 12" fill="none" xmlns="http://www.w3.org/2000/svg">
<path d="M12.7538 11.6317L17.6219 6.88921C18.0945 6.42881 18.1241 5.70022 17.7105 5.2063L17.6219 5.11079L12.7538 0.368324C12.2497 -0.122775 11.4324 -0.122775 10.9283 0.368324C10.4557 0.828728 10.4262 1.55731 10.8397 2.05124L10.9283 2.14675L13.5862 4.73617L1.29084 4.73579C0.577931 4.73579 0 5.29881 0 5.99333C0 6.68785 0.577931 7.25086 1.29084 7.25086L13.6008 7.25086L10.9283 9.85325C10.4539 10.3155 10.426 11.048 10.8446 11.542L10.9283 11.6317C11.4009 12.0921 12.1488 12.1209 12.6558 11.718L12.7538 11.6317Z" fill="white"/>
</svg>
