<svg width="18" height="12" viewBox="0 0 18 12" fill="none" xmlns="http://www.w3.org/2000/svg">
<path d="M5.24616 0.368323L0.378079 5.11079C-0.0945206 5.57119 -0.124054 6.29978 0.289471 6.7937L0.378079 6.88921L5.24616 11.6317C5.75026 12.1228 6.56758 12.1228 7.07169 11.6317C7.54429 11.1713 7.57383 10.4427 7.1603 9.94876L7.07169 9.85325L4.41376 7.26383L16.7092 7.26421C17.4221 7.26421 18 6.70119 18 6.00667C18 5.31215 17.4221 4.74914 16.7092 4.74914L4.39915 4.74913L7.07169 2.14675C7.54614 1.68454 7.57405 0.952038 7.15542 0.45803L7.07169 0.368323C6.59909 -0.0920813 5.85121 -0.120857 5.3442 0.281997L5.24616 0.368323Z" fill="#14CCCC"/>
</svg>
