<?xml version="1.0" encoding="UTF-8"?>
<svg width="26px" height="21px" viewBox="0 0 26 21" version="1.1" xmlns="http://www.w3.org/2000/svg" xmlns:xlink="http://www.w3.org/1999/xlink">
    <!-- Generator: Sketch 64 (93537) - https://sketch.com -->
    <title>Group 13</title>
    <desc>Created with Sketch.</desc>
    <g id="09-Logs-&amp;-Chats" stroke="none" stroke-width="1" fill="none" fill-rule="evenodd">
        <g id="Group-13" transform="translate(0.000003, -0.000001)" fill-rule="nonzero">
            <path d="M17.9854461,1.43797366 L10.2309974,9.55000127 L7.91599174,7.26813109 C6.02618682,5.40562578 2.99793077,5.50095522 1.22408121,7.47116867 C-0.479228162,9.3630462 -0.396052375,12.292645 1.41814547,14.0807239 L7.08138196,19.66215 C8.93111397,21.4851812 11.884068,21.4387108 13.677766,19.5620108 L24.6804583,8.05034888 C26.4398412,6.20955148 26.4398412,3.27882105 24.6804662,1.43803185 C22.8478809,-0.479320414 19.8180304,-0.479348088 17.9854461,1.43797366 Z M22.5117381,3.51086054 C23.1627537,4.19200148 23.1627537,5.29637105 22.5117287,5.97752185 L11.5090366,17.4891837 C10.8718128,18.1558944 9.84331098,18.1720798 9.18721884,17.5254584 L3.52400293,11.9440526 C2.85372693,11.2834265 2.82238647,10.1795601 3.45359711,9.47847006 C4.08478829,8.77740646 5.13984239,8.74419338 5.81014188,9.40480991 L10.2950678,13.8251028 L20.1541144,3.51086481 C20.8051632,2.82971197 21.8607127,2.82972161 22.5117381,3.51086054 Z" id="Path" fill="#17E6E6"></path>
            <path d="M22.5117381,3.51086054 C23.1627537,4.19200148 23.1627537,5.29637105 22.5117287,5.97752185 L11.5090366,17.4891837 C10.8718128,18.1558944 9.84331098,18.1720798 9.18721884,17.5254584 L3.52400293,11.9440526 C2.85372693,11.2834265 2.82238647,10.1795601 3.45359711,9.47847006 C4.08478829,8.77740646 5.13984239,8.74419338 5.81014188,9.40480991 L10.2950678,13.8251028 L20.1541144,3.51086481 C20.8051632,2.82971197 21.8607127,2.82972161 22.5117381,3.51086054 Z" id="Path" fill="#FFFFFF"></path>
        </g>
    </g>
</svg>