<?xml version="1.0" encoding="UTF-8"?>
<svg width="26px" height="21px" viewBox="0 0 26 21" version="1.1" xmlns="http://www.w3.org/2000/svg" xmlns:xlink="http://www.w3.org/1999/xlink">
    <!-- Generator: Sketch 64 (93537) - https://sketch.com -->
    <title>check-pale</title>
    <desc>Created with Sketch.</desc>
    <g id="6.-Whiteboards-(Done)" stroke="none" stroke-width="1" fill="none" fill-rule="evenodd">
        <g id="check-pale" fill-rule="nonzero">
            <path d="M17.9854491,1.43797266 L10.2310004,9.55000027 L7.91599474,7.26813009 C6.02618982,5.40562478 2.99793377,5.50095422 1.22408421,7.47116767 C-0.479225162,9.3630452 -0.396049375,12.292644 1.41814847,14.0807229 L7.08138496,19.662149 C8.93111697,21.4851802 11.884071,21.4387098 13.677769,19.5620098 L24.6804613,8.05034788 C26.4398442,6.20955048 26.4398442,3.27882005 24.6804692,1.43803085 C22.8478839,-0.479321414 19.8180334,-0.479349088 17.9854491,1.43797266 Z M22.5117411,3.51085954 C23.1627567,4.19200048 23.1627567,5.29637005 22.5117317,5.97752085 L11.5090396,17.4891827 C10.8718158,18.1558934 9.84331398,18.1720788 9.18722184,17.5254574 L3.52400593,11.9440516 C2.85372993,11.2834255 2.82238947,10.1795591 3.45360011,9.47846906 C4.08479129,8.77740546 5.13984539,8.74419238 5.81014488,9.40480891 L10.2950708,13.8251018 L20.1541174,3.51086381 C20.8051662,2.82971097 21.8607157,2.82972061 22.5117411,3.51085954 Z" id="Path" fill="#BCF7F7"></path>
            <path d="M22.5117411,3.51085954 C23.1627567,4.19200048 23.1627567,5.29637005 22.5117317,5.97752085 L11.5090396,17.4891827 C10.8718158,18.1558934 9.84331398,18.1720788 9.18722184,17.5254574 L3.52400593,11.9440516 C2.85372993,11.2834255 2.82238947,10.1795591 3.45360011,9.47846906 C4.08479129,8.77740546 5.13984539,8.74419238 5.81014488,9.40480891 L10.2950708,13.8251018 L20.1541174,3.51086381 C20.8051662,2.82971097 21.8607157,2.82972061 22.5117411,3.51085954 Z" id="Path" fill="#FFFFFF"></path>
        </g>
    </g>
</svg>