<svg width="30" height="25" viewBox="0 0 30 25" fill="none" xmlns="http://www.w3.org/2000/svg">
<path d="M2.5 7.5C2.5 4.73858 4.73803 2.5 7.49879 2.5L24.1614 2.5C26.9076 2.5 28.4751 5.63588 26.8274 7.83333L24.453 11C23.7865 11.8889 23.7865 13.1111 24.453 14L26.8274 17.1667C28.4751 19.3641 26.9076 22.5 24.1614 22.5H7.49879C4.73804 22.5 2.5 20.2614 2.5 17.5V7.5Z" fill="#00D1FF"/>
<path fill-rule="evenodd" clip-rule="evenodd" d="M7.49749 0H24.158C28.9634 0 31.7063 5.48779 28.8231 9.33333L26.4489 12.5L28.8231 15.6667C31.7063 19.5122 28.9633 25 24.158 25H7.49749C3.35674 25 0 21.6421 0 17.5V7.5C0 3.35786 3.35674 0 7.49749 0ZM7.49749 2.5C4.73699 2.5 2.49916 4.73858 2.49916 7.5V17.5C2.49916 20.2614 4.73699 22.5 7.49749 22.5H24.158C26.9039 22.5 28.4713 19.3641 26.8238 17.1667L24.4496 14C23.7832 13.1111 23.7832 11.8889 24.4496 11L26.8238 7.83333C28.4713 5.63588 26.9039 2.5 24.158 2.5H7.49749Z" fill="#F2F2F2"/>
<path d="M10.8334 2.5L18.3334 2.5L18.3334 22.5H10.8334L10.8334 2.5Z" fill="white"/>
<path d="M2.5 9.16675V15.8334L25.8277 15.8334L24.453 14.0001C23.7865 13.1112 23.7865 11.889 24.453 11.0001L25.8277 9.16675H2.5Z" fill="white"/>
<path d="M6.20873 22.3319C5.34804 22.1026 4.57869 21.6493 3.96686 21.0382L12.8157 12.1895L4.29121 3.66499C4.97136 3.09522 5.80534 2.70312 6.72178 2.56005L14.5834 10.4217L22.5051 2.5H24.1615C24.7234 2.5 25.2359 2.63129 25.6817 2.85896L16.3512 12.1895L26.0693 21.9076C25.5431 22.2767 24.8942 22.5 24.1615 22.5H23.1262L14.5834 13.9572L6.20873 22.3319Z" fill="white"/>
<path d="M13.3333 2.5L15.8333 2.5L15.8333 22.5H13.3333L13.3333 2.5Z" fill="#FF5E98"/>
<path d="M2.5 11.25V13.75L24.2932 13.75C23.8467 12.9776 23.8467 12.0224 24.2932 11.25H2.5Z" fill="#FF5E98"/>
</svg>
