<svg width="36" height="30" viewBox="0 0 36 30" fill="none" xmlns="http://www.w3.org/2000/svg">
<path d="M3 9C3 5.68629 5.68564 3 8.99855 3L28.9937 3C32.2891 3 34.1702 6.76306 32.1929 9.4L29.3436 13.2C28.5438 14.2667 28.5438 15.7333 29.3436 16.8L32.1929 20.6C34.1702 23.2369 32.2891 27 28.9937 27H8.99855C5.68564 27 3 24.3137 3 21V9Z" fill="#00D1FF"/>
<path fill-rule="evenodd" clip-rule="evenodd" d="M8.99699 0H28.9896C34.756 0 38.0476 6.58535 34.5878 11.2L31.7387 15L34.5878 18.8C38.0476 23.4147 34.756 30 28.9896 30H8.99699C4.02809 30 0 25.9706 0 21V9C0 4.02944 4.02809 0 8.99699 0ZM8.99699 3C5.68439 3 2.999 5.68629 2.999 9V21C2.999 24.3137 5.68439 27 8.99699 27H28.9896C32.2847 27 34.1656 23.2369 32.1886 20.6L29.3395 16.8C28.5398 15.7333 28.5398 14.2667 29.3395 13.2L32.1886 9.4C34.1656 6.76306 32.2847 3 28.9896 3H8.99699Z" fill="#F2F2F2"/>
<path d="M13 3L22 3L22 27H13L13 3Z" fill="white"/>
<path d="M3 11V19L30.9932 19L29.3436 16.8C28.5437 15.7333 28.5437 14.2667 29.3436 13.2L30.9932 11H3Z" fill="white"/>
<path d="M7.4505 26.7983C6.41767 26.5231 5.49445 25.9791 4.76025 25.2459L15.3788 14.6273L5.14947 4.39798C5.96566 3.71427 6.96643 3.24374 8.06617 3.07206L17.5001 12.506L27.0061 3H28.9938C29.6681 3 30.2831 3.15755 30.8181 3.43076L19.6215 14.6273L31.2832 26.2891C30.6517 26.7321 29.8731 27 28.9938 27H27.7515L17.5001 16.7487L7.4505 26.7983Z" fill="white"/>
<path d="M16 3L19 3L19 27H16L16 3Z" fill="#FF5E98"/>
<path d="M3 13.5V16.5L29.1518 16.5C28.6161 15.5731 28.6161 14.4269 29.1518 13.5H3Z" fill="#FF5E98"/>
</svg>
