<svg width="31" height="35" viewBox="0 0 31 35" fill="none" xmlns="http://www.w3.org/2000/svg">
<mask id="path-1-outside-1" maskUnits="userSpaceOnUse" x="0" y="0" width="31" height="36" fill="black">
<rect fill="white" width="31" height="36"/>
<path fill-rule="evenodd" clip-rule="evenodd" d="M18.7787 22.1364C17.336 20.6168 15.8972 19.0946 14.4594 17.5735C13.0301 16.0614 11.6019 14.5504 10.1718 13.0441C9.67932 12.5254 9.07865 11.9546 8.41366 11.3233L8.40289 11.3131C7.74904 10.6924 7.04103 10.0202 6.3636 9.32283C5.03225 7.95232 3.67758 6.3475 3.08049 4.64967C3.0263 4.49557 2.86283 3.9303 3.25225 3.42354C3.58972 2.98437 4.05256 2.99749 4.1479 3.00085C4.42725 3.01067 4.70396 3.12544 4.84661 3.18761C5.19991 3.34157 5.60683 3.58007 5.83362 3.73771C7.30818 4.76271 10.1731 7.02408 11.2281 7.86647C16.2433 11.8707 21.2832 15.9428 25.7117 20.6002C26.1164 21.0258 26.1309 21.7319 25.7442 22.1772C25.3575 22.6226 24.7159 22.6386 24.3112 22.213C19.9959 17.6747 15.0639 13.6851 10.0378 9.67208C9.69045 9.39477 9.15885 8.97319 8.55111 8.49683C8.94588 8.88244 9.34515 9.26153 9.73772 9.63422L9.74789 9.64387C10.3982 10.2613 11.0382 10.8688 11.5734 11.4326C13.0105 12.9463 14.4425 14.4613 15.8737 15.9754C19.0489 19.3346 22.2198 22.6892 25.432 26.0146C25.4283 26.0108 25.4489 26.0314 25.5119 26.0948C25.5671 26.1504 25.645 26.2289 25.7388 26.3238C25.926 26.5134 26.1772 26.7691 26.438 27.039C26.6978 27.3079 26.9713 27.5951 27.2017 27.8465C27.4113 28.0753 27.6432 28.3363 27.7731 28.5266C27.8152 28.5881 27.8941 28.7129 27.9465 28.8875C27.9995 29.0642 28.0617 29.4269 27.8692 29.8071C27.6807 30.1796 27.3769 30.3115 27.2274 30.3557C27.0745 30.401 26.9443 30.3991 26.8792 30.3957C26.6522 30.3837 26.4238 30.2963 26.32 30.2558C26.0508 30.1506 25.7075 29.9798 25.5013 29.8441C23.4393 28.4873 21.5096 26.9848 19.6161 25.5105C19.5074 25.4259 19.3989 25.3414 19.2905 25.2571C17.2813 23.6935 15.302 22.1693 13.1751 20.8252C12.7833 20.5776 12.266 20.2767 11.7457 20.0197C11.4817 19.8894 11.2329 19.7784 11.0093 19.6917C11.0333 19.7366 11.0588 19.7833 11.0859 19.8319C12.5965 22.54 14.6945 25.0232 16.8303 27.5512C17.5528 28.4062 18.2796 29.2664 18.9894 30.1422C19.362 30.6019 19.3254 31.3069 18.9077 31.717C18.49 32.127 17.8493 32.0868 17.4767 31.6271C16.8338 30.834 16.1513 30.0266 15.4556 29.2036C13.2847 26.6354 10.9847 23.9146 9.35838 20.999C9.08875 20.5156 8.88548 20.0713 8.76746 19.6674C8.65669 19.2883 8.57378 18.7863 8.74084 18.2906C8.93735 17.7075 9.37445 17.4179 9.76825 17.3133C10.1193 17.2201 10.4768 17.255 10.7592 17.3095C11.3387 17.4214 11.9977 17.6991 12.5755 17.9844C13.1693 18.2777 13.7472 18.6143 14.1845 18.8907C15.7888 19.9045 17.3048 21.0116 18.7787 22.1364Z"/>
</mask>
<path d="M18.7787 22.1364L16.9588 24.5213C18.2023 25.4702 19.9662 25.3044 21.0111 24.1405C22.056 22.9766 22.0313 21.2051 20.9544 20.0708L18.7787 22.1364ZM14.4594 17.5735L12.2792 19.6343H12.2792L14.4594 17.5735ZM10.1718 13.0441L12.3475 10.9786L12.3475 10.9786L10.1718 13.0441ZM8.41366 11.3233L6.34807 13.4989L6.34813 13.499L8.41366 11.3233ZM8.40289 11.3131L10.4685 9.13747L10.4684 9.13741L8.40289 11.3131ZM6.3636 9.32283L8.51544 7.23248L8.51544 7.23248L6.3636 9.32283ZM3.08049 4.64967L0.25038 5.6449L0.250398 5.64495L3.08049 4.64967ZM3.25225 3.42354L5.63102 5.2515H5.63102L3.25225 3.42354ZM4.1479 3.00085L4.25338 0.00270128L4.25338 0.00270104L4.1479 3.00085ZM4.84661 3.18761L6.04511 0.437409L6.04508 0.437398L4.84661 3.18761ZM5.83362 3.73771L7.54592 1.27438L7.54592 1.27438L5.83362 3.73771ZM11.2281 7.86647L9.3563 10.2109L9.3563 10.2109L11.2281 7.86647ZM25.7117 20.6002L23.5376 22.6675L23.5376 22.6675L25.7117 20.6002ZM25.7442 22.1772L23.479 20.2102V20.2102L25.7442 22.1772ZM24.3112 22.213L22.1372 24.2802L24.3112 22.213ZM10.0378 9.67208L8.16594 12.0165L8.16594 12.0165L10.0378 9.67208ZM8.55111 8.49683L10.4018 6.1357C9.14769 5.15271 7.34391 5.32166 6.29415 6.52043C5.24439 7.71921 5.31496 9.52951 6.45486 10.6429L8.55111 8.49683ZM9.73772 9.63422L7.67219 11.8099L7.67229 11.81L9.73772 9.63422ZM9.74789 9.64387L11.8134 7.46819L11.8133 7.4681L9.74789 9.64387ZM11.5734 11.4326L13.749 9.367L13.749 9.367L11.5734 11.4326ZM15.8737 15.9754L18.0539 13.9146L18.0539 13.9146L15.8737 15.9754ZM25.432 26.0146L23.2745 28.0991C24.4257 29.2906 26.3248 29.3234 27.5164 28.1723C28.708 27.0211 28.7408 25.122 27.5898 23.9304L25.432 26.0146ZM25.5119 26.0948L23.3838 28.2094L23.3838 28.2094L25.5119 26.0948ZM25.7388 26.3238L23.6044 28.432L23.6044 28.432L25.7388 26.3238ZM26.438 27.039L28.5953 24.9543L28.5953 24.9543L26.438 27.039ZM27.2017 27.8465L29.4136 25.8198L29.4136 25.8198L27.2017 27.8465ZM27.7731 28.5266L30.2509 26.8352L30.2508 26.8351L27.7731 28.5266ZM27.9465 28.8875L25.0732 29.7501L25.0732 29.7501L27.9465 28.8875ZM27.8692 29.8071L30.5459 31.1619V31.1619L27.8692 29.8071ZM27.2274 30.3557L26.3761 27.4791L26.3761 27.4791L27.2274 30.3557ZM26.8792 30.3957L26.7213 33.3915H26.7213L26.8792 30.3957ZM26.32 30.2558L25.2281 33.05L25.2281 33.05L26.32 30.2558ZM25.5013 29.8441L23.8522 32.3502L23.8522 32.3502L25.5013 29.8441ZM19.6161 25.5105L17.773 27.8776L17.773 27.8776L19.6161 25.5105ZM19.2905 25.2571L17.4481 27.6246L17.4481 27.6247L19.2905 25.2571ZM13.1751 20.8252L14.7778 18.2891L14.7778 18.2891L13.1751 20.8252ZM11.7457 20.0197L13.074 17.3298L13.0739 17.3298L11.7457 20.0197ZM11.0093 19.6917L12.0936 16.8945C10.9241 16.4411 9.59594 16.7633 8.76404 17.7021C7.93214 18.6408 7.77212 19.9981 8.36286 21.1046L11.0093 19.6917ZM11.0859 19.8319L13.7059 18.3705L13.7059 18.3705L11.0859 19.8319ZM16.8303 27.5512L19.1219 25.615L16.8303 27.5512ZM18.9894 30.1422L21.32 28.2531L18.9894 30.1422ZM18.9077 31.717L16.8061 29.5761L16.8061 29.5761L18.9077 31.717ZM17.4767 31.6271L15.1461 33.5161L15.1461 33.5161L17.4767 31.6271ZM15.4556 29.2036L17.7467 27.2668L17.7467 27.2668L15.4556 29.2036ZM9.35838 20.999L11.9784 19.5375L11.9783 19.5375L9.35838 20.999ZM8.76746 19.6674L5.88785 20.5088L5.88785 20.5088L8.76746 19.6674ZM8.74084 18.2906L11.5837 19.2487V19.2487L8.74084 18.2906ZM9.76825 17.3133L10.5379 20.2129H10.5379L9.76825 17.3133ZM10.7592 17.3095L10.1906 20.2551L10.1906 20.2551L10.7592 17.3095ZM12.5755 17.9844L13.9038 15.2945L13.9038 15.2945L12.5755 17.9844ZM14.1845 18.8907L15.7872 16.3546L15.7872 16.3546L14.1845 18.8907ZM20.9544 20.0708C19.5143 18.554 18.0778 17.0342 16.6396 15.5127L12.2792 19.6343C13.7166 21.155 15.1577 22.6796 16.6031 24.202L20.9544 20.0708ZM16.6396 15.5127C15.2107 14.0011 13.7802 12.4877 12.3475 10.9786L7.99616 15.1097C9.4236 16.6132 10.8496 18.1218 12.2792 19.6343L16.6396 15.5127ZM12.3475 10.9786C11.7905 10.3919 11.1282 9.76383 10.4792 9.14764L6.34813 13.499C7.02907 14.1455 7.56816 14.6589 7.99616 15.1097L12.3475 10.9786ZM10.4792 9.14769L10.4685 9.13747L6.3373 13.4887L6.34807 13.4989L10.4792 9.14769ZM10.4684 9.13741C9.80794 8.51037 9.14376 7.87928 8.51544 7.23248L4.21176 11.4132C4.9383 12.1611 5.69015 12.8743 6.33736 13.4888L10.4684 9.13741ZM8.51544 7.23248C7.21054 5.88919 6.27326 4.68568 5.91058 3.65439L0.250398 5.64495C1.08189 8.00932 2.85396 10.0154 4.21176 11.4132L8.51544 7.23248ZM5.9106 3.65444C5.94618 3.75563 6.00112 3.93651 5.99998 4.18273C5.99868 4.46358 5.91971 4.87582 5.63102 5.2515L0.873478 1.59558C-0.498484 3.38094 0.12399 5.28549 0.25038 5.6449L5.9106 3.65444ZM5.63102 5.2515C5.35716 5.60788 4.9864 5.81919 4.65685 5.91855C4.50467 5.96443 4.36995 5.98458 4.26374 5.99341C4.2096 5.99791 4.16103 5.99961 4.11969 5.99994C4.09903 6.0001 4.08092 5.99992 4.06622 5.99962C4.05187 5.99934 4.04124 5.99895 4.04243 5.99899L4.25338 0.00270104C3.94453 -0.00816393 2.14626 -0.0607266 0.873478 1.59558L5.63102 5.2515ZM4.04243 5.99899C3.92758 5.99495 3.83893 5.9813 3.78238 5.9703C3.72492 5.95913 3.68417 5.94748 3.66248 5.94077C3.62393 5.92885 3.60829 5.92046 3.64813 5.93782L6.04508 0.437398C5.90091 0.374572 5.15841 0.0345397 4.25338 0.00270128L4.04243 5.99899ZM3.64811 5.93781C3.70367 5.96202 3.79814 6.0089 3.91035 6.07239C4.02364 6.13647 4.10048 6.18657 4.12132 6.20105L7.54592 1.27438C7.17683 1.01781 6.59886 0.678726 6.04511 0.437409L3.64811 5.93781ZM4.12131 6.20105C5.49849 7.15834 8.28212 9.35322 9.3563 10.2109L13.1 5.52207C12.064 4.69493 9.11788 2.36707 7.54592 1.27438L4.12131 6.20105ZM9.3563 10.2109C14.3857 14.2265 19.2703 18.1796 23.5376 22.6675L27.8857 18.533C23.296 13.7061 18.101 9.51502 13.1 5.52207L9.3563 10.2109ZM23.5376 22.6675C23.1775 22.2888 23.0334 21.8348 23.0253 21.4431C23.0173 21.0514 23.1424 20.5978 23.479 20.2102L28.0093 24.1442C29.4028 22.5396 29.3631 20.0867 27.8857 18.533L23.5376 22.6675ZM23.479 20.2102C23.828 19.8084 24.3605 19.5376 24.9596 19.5226C25.5595 19.5077 26.1114 19.7525 26.4853 20.1458L22.1372 24.2802C23.7712 25.9987 26.4715 25.9152 28.0093 24.1442L23.479 20.2102ZM26.4853 20.1458C22.0087 15.4378 16.9214 11.3292 11.9096 7.32768L8.16594 12.0165C13.2065 16.041 17.9832 19.9116 22.1372 24.2802L26.4853 20.1458ZM11.9096 7.32768C11.5554 7.04489 11.0168 6.61774 10.4018 6.1357L6.70042 10.858C7.30091 11.3286 7.82547 11.7446 8.16594 12.0165L11.9096 7.32768ZM6.45486 10.6429C6.86737 11.0459 7.28202 11.4395 7.67219 11.8099L11.8033 7.45854C11.4083 7.08357 11.0244 6.71902 10.6474 6.35074L6.45486 10.6429ZM7.67229 11.81L7.68246 11.8196L11.8133 7.4681L11.8032 7.45845L7.67229 11.81ZM7.68236 11.8196C8.34762 12.4511 8.92675 13.002 9.39774 13.4981L13.749 9.367C13.1496 8.73566 12.4488 8.07141 11.8134 7.46819L7.68236 11.8196ZM9.39774 13.4981C10.8322 15.009 12.262 16.5217 13.6936 18.0362L18.0539 13.9146C16.6231 12.4009 15.1888 10.8835 13.749 9.367L9.39774 13.4981ZM13.6936 18.0362C16.8669 21.3934 20.0489 24.7598 23.2743 28.0989L27.5898 23.9304C24.3907 20.6186 21.231 17.2758 18.0539 13.9146L13.6936 18.0362ZM27.5895 23.9301C27.592 23.9327 27.5992 23.9402 27.6084 23.9499C27.6128 23.9545 27.622 23.9642 27.6336 23.9767C27.6361 23.9794 27.6738 24.0199 27.7187 24.0727C27.7321 24.0886 27.7559 24.1169 27.7846 24.1531C27.804 24.1777 27.8693 24.2603 27.9429 24.3731C27.9836 24.437 28.0831 24.6108 28.139 24.722C28.2323 24.9389 28.4158 25.7065 28.4214 26.2612C28.0491 27.48 26.2549 28.899 25.203 29.0055C24.7881 28.9443 24.2086 28.7536 24.0365 28.67C23.7975 28.5445 23.6278 28.4114 23.6127 28.3999C23.5584 28.3585 23.5171 28.324 23.4974 28.3074C23.4561 28.2726 23.4249 28.2443 23.4138 28.2342C23.3875 28.2103 23.3675 28.1912 23.362 28.186C23.3534 28.1778 23.3467 28.1713 23.3429 28.1677C23.3305 28.1556 23.3209 28.146 23.3206 28.1458C23.318 28.1431 23.3161 28.1412 23.3155 28.1407C23.3141 28.1393 23.3152 28.1404 23.3215 28.1467C23.3327 28.1579 23.3524 28.1778 23.3838 28.2094L27.6399 23.9802C27.6083 23.9484 27.5863 23.9263 27.5724 23.9123C27.5662 23.9061 27.5589 23.8988 27.5526 23.8926C27.5509 23.8908 27.548 23.888 27.5446 23.8846C27.5436 23.8836 27.5334 23.8734 27.5207 23.8611C27.5169 23.8574 27.51 23.8508 27.5014 23.8426C27.4959 23.8373 27.4758 23.8181 27.4495 23.7943C27.4384 23.7841 27.4071 23.7558 27.3658 23.7209C27.3462 23.7044 27.3048 23.6699 27.2505 23.6285C27.2354 23.617 27.0657 23.4839 26.8268 23.3583C26.6546 23.2748 26.0751 23.084 25.6602 23.0229C24.6083 23.1294 22.8141 24.5484 22.4418 25.7672C22.4474 26.3218 22.6309 27.0895 22.7242 27.3064C22.7801 27.4176 22.8796 27.5913 22.9203 27.6553C22.994 27.768 23.0592 27.8506 23.0786 27.8752C23.1073 27.9115 23.1311 27.9398 23.1446 27.9557C23.1894 28.0085 23.2272 28.049 23.2298 28.0518C23.2414 28.0644 23.2506 28.0742 23.2551 28.0788C23.2644 28.0886 23.2718 28.0963 23.2745 28.0991L27.5895 23.9301ZM23.3838 28.2094C23.4376 28.2635 23.5133 28.3398 23.6044 28.432L27.8732 24.2157C27.7768 24.1181 27.6967 24.0374 27.6399 23.9802L23.3838 28.2094ZM23.6044 28.432C23.787 28.6169 24.03 28.8643 24.2806 29.1236L28.5953 24.9543C28.3245 24.674 28.0651 24.41 27.8732 24.2157L23.6044 28.432ZM24.2806 29.1236C24.5327 29.3846 24.7853 29.6501 24.9898 29.8732L29.4136 25.8198C29.1572 25.5401 28.8629 25.2313 28.5953 24.9543L24.2806 29.1236ZM24.9898 29.8732C25.086 29.9783 25.169 30.0708 25.2357 30.1489C25.2684 30.1872 25.2907 30.2145 25.3044 30.2318C25.3198 30.2514 25.314 30.2452 25.2954 30.218L30.2508 26.8351C29.9792 26.4372 29.5963 26.0192 29.4136 25.8198L24.9898 29.8732ZM25.2954 30.218C25.2493 30.1504 25.1443 29.9871 25.0732 29.7501L30.8198 28.0248C30.6438 27.4387 30.381 27.0258 30.2509 26.8352L25.2954 30.218ZM25.0732 29.7501C25.0089 29.536 24.9028 29.0248 25.1926 28.4523L30.5459 31.1619C31.2205 29.8291 30.9902 28.5923 30.8198 28.0248L25.0732 29.7501ZM25.1926 28.4523C25.5054 27.8343 26.0551 27.5741 26.3761 27.4791L28.0788 33.2324C28.6987 33.0489 29.856 32.5249 30.5459 31.1619L25.1926 28.4523ZM26.3761 27.4791C26.6825 27.3884 26.9337 27.3944 27.0371 27.3998L26.7213 33.3915C26.955 33.4038 27.4664 33.4136 28.0788 33.2324L26.3761 27.4791ZM27.0371 27.3998C27.1423 27.4054 27.2231 27.4181 27.274 27.4278C27.3261 27.4378 27.3639 27.4479 27.3851 27.454C27.4237 27.4652 27.445 27.4745 27.4119 27.4615L25.2281 33.05C25.3181 33.0852 25.9564 33.3512 26.7213 33.3915L27.0371 27.3998ZM27.4119 27.4615C27.3765 27.4477 27.3081 27.4179 27.2312 27.3794C27.1955 27.3615 27.167 27.3462 27.1476 27.3353C27.1259 27.3231 27.1285 27.3237 27.1503 27.338L23.8522 32.3502C24.2736 32.6275 24.8139 32.8881 25.2281 33.05L27.4119 27.4615ZM27.1503 27.338C25.2043 26.0575 23.3673 24.6292 21.4591 23.1434L17.773 27.8776C19.6519 29.3405 21.6742 30.9171 23.8522 32.3502L27.1503 27.338ZM21.4591 23.1434C21.3505 23.0589 21.2417 22.9741 21.1329 22.8895L17.4481 27.6247C17.5561 27.7087 17.6643 27.793 17.773 27.8776L21.4591 23.1434ZM21.1329 22.8895C19.1314 21.3319 17.0449 19.7218 14.7778 18.2891L11.5725 23.3612C13.5592 24.6167 15.4312 26.0551 17.4481 27.6246L21.1329 22.8895ZM14.7778 18.2891C14.3175 17.9982 13.7077 17.6427 13.074 17.3298L10.4174 22.7096C10.8244 22.9106 11.2491 23.1569 11.5725 23.3612L14.7778 18.2891ZM13.0739 17.3298C12.7491 17.1694 12.4176 17.0201 12.0936 16.8945L9.92502 22.4889C10.0482 22.5366 10.2143 22.6094 10.4174 22.7096L13.0739 17.3298ZM8.36286 21.1046C8.3958 21.1663 8.43014 21.2292 8.46594 21.2934L13.7059 18.3705C13.6874 18.3374 13.6708 18.3069 13.6558 18.2788L8.36286 21.1046ZM8.46593 21.2934C10.1431 24.3002 12.4424 27.0061 14.5388 29.4873L19.1219 25.615C16.9467 23.0404 15.0498 20.7798 13.7059 18.3705L8.46593 21.2934ZM14.5388 29.4873C15.2645 30.3462 15.9714 31.1831 16.6588 32.0312L21.32 28.2531C20.5877 27.3497 19.8411 26.4663 19.1219 25.615L14.5388 29.4873ZM16.6588 32.0312C16.3398 31.6376 16.2286 31.1846 16.2489 30.7928C16.2692 30.4012 16.4281 29.9472 16.8061 29.5761L21.0092 33.8579C22.5497 32.3457 22.6495 29.8935 21.32 28.2531L16.6588 32.0312ZM16.8061 29.5761C17.1989 29.1905 17.7644 28.9665 18.3634 29.0041C18.96 29.0416 19.477 29.3306 19.8072 29.738L15.1461 33.5161C16.6103 35.3226 19.3036 35.5322 21.0092 33.8579L16.8061 29.5761ZM19.8073 29.7381C19.1415 28.9167 18.4385 28.0852 17.7467 27.2668L13.1645 31.1403C13.8642 31.968 14.5262 32.7513 15.1461 33.5161L19.8073 29.7381ZM17.7467 27.2668C15.5373 24.6531 13.4381 22.1544 11.9784 19.5375L6.73841 22.4604C8.53139 25.6748 11.0321 28.6176 13.1645 31.1403L17.7467 27.2668ZM11.9783 19.5375C11.7661 19.1571 11.6778 18.9313 11.6471 18.826L5.88785 20.5088C6.09314 21.2114 6.41137 21.8741 6.73841 22.4604L11.9783 19.5375ZM11.6471 18.8261C11.6329 18.7774 11.6415 18.7896 11.6449 18.8481C11.6486 18.912 11.6475 19.0594 11.5837 19.2487L5.89797 17.3324C5.44273 18.6831 5.7088 19.8959 5.88785 20.5088L11.6471 18.8261ZM11.5837 19.2487C11.5078 19.474 11.358 19.7056 11.1433 19.8914C10.9436 20.0641 10.7299 20.162 10.5379 20.2129L8.9986 14.4137C7.81093 14.729 6.47104 15.6321 5.89797 17.3324L11.5837 19.2487ZM10.5379 20.2129C10.3822 20.2542 10.2681 20.2563 10.2204 20.2552C10.1731 20.2542 10.1589 20.249 10.1906 20.2551L11.3279 14.3639C10.8616 14.2739 9.98559 14.1518 8.9986 14.4137L10.5379 20.2129ZM10.1906 20.2551C10.3642 20.2886 10.7311 20.4195 11.2472 20.6744L13.9038 15.2945C13.2644 14.9788 12.3132 14.5541 11.3279 14.3639L10.1906 20.2551ZM11.2472 20.6744C11.7277 20.9116 12.213 21.1936 12.5819 21.4267L15.7872 16.3546C15.2813 16.0349 14.6109 15.6437 13.9038 15.2945L11.2472 20.6744ZM12.5819 21.4267C14.0783 22.3723 15.5146 23.4192 16.9588 24.5213L20.5987 19.7514C19.0951 18.6041 17.4994 17.4367 15.7872 16.3546L12.5819 21.4267Z" fill="#FF5E98" mask="url(#path-1-outside-1)"/>
<path fill-rule="evenodd" clip-rule="evenodd" d="M18.7787 22.1364C17.336 20.6168 15.8972 19.0946 14.4594 17.5735C13.0301 16.0614 11.6019 14.5504 10.1718 13.0441C9.67932 12.5254 9.07865 11.9546 8.41366 11.3233L8.40289 11.3131C7.74904 10.6924 7.04103 10.0202 6.3636 9.32283C5.03225 7.95232 3.67758 6.3475 3.08049 4.64967C3.0263 4.49557 2.86283 3.9303 3.25225 3.42354C3.58972 2.98437 4.05256 2.99749 4.1479 3.00085C4.42725 3.01067 4.70396 3.12544 4.84661 3.18761C5.19991 3.34157 5.60683 3.58007 5.83362 3.73771C7.30818 4.76271 10.1731 7.02408 11.2281 7.86647C16.2433 11.8707 21.2832 15.9428 25.7117 20.6002C26.1164 21.0258 26.1309 21.7319 25.7442 22.1772C25.3575 22.6226 24.7159 22.6386 24.3112 22.213C19.9959 17.6747 15.0639 13.6851 10.0378 9.67208C9.69045 9.39477 9.15885 8.97319 8.55111 8.49683C8.94588 8.88244 9.34515 9.26153 9.73772 9.63422L9.74789 9.64387C10.3982 10.2613 11.0382 10.8688 11.5734 11.4326C13.0105 12.9463 14.4425 14.4613 15.8737 15.9754C19.0489 19.3346 22.2198 22.6892 25.432 26.0146C25.4283 26.0108 25.4489 26.0314 25.5119 26.0948C25.5671 26.1504 25.645 26.2289 25.7388 26.3238C25.926 26.5134 26.1772 26.7691 26.438 27.039C26.6978 27.3079 26.9713 27.5951 27.2017 27.8465C27.4113 28.0753 27.6432 28.3363 27.7731 28.5266C27.8152 28.5881 27.8941 28.7129 27.9465 28.8875C27.9995 29.0642 28.0617 29.4269 27.8692 29.8071C27.6807 30.1796 27.3769 30.3115 27.2274 30.3557C27.0745 30.401 26.9443 30.3991 26.8792 30.3957C26.6522 30.3837 26.4238 30.2963 26.32 30.2558C26.0508 30.1506 25.7075 29.9798 25.5013 29.8441C23.4393 28.4873 21.5096 26.9848 19.6161 25.5105C19.5074 25.4259 19.3989 25.3414 19.2905 25.2571C17.2813 23.6935 15.302 22.1693 13.1751 20.8252C12.7833 20.5776 12.266 20.2767 11.7457 20.0197C11.4817 19.8894 11.2329 19.7784 11.0093 19.6917C11.0333 19.7366 11.0588 19.7833 11.0859 19.8319C12.5965 22.54 14.6945 25.0232 16.8303 27.5512C17.5528 28.4062 18.2796 29.2664 18.9894 30.1422C19.362 30.6019 19.3254 31.3069 18.9077 31.717C18.49 32.127 17.8493 32.0868 17.4767 31.6271C16.8338 30.834 16.1513 30.0266 15.4556 29.2036C13.2847 26.6354 10.9847 23.9146 9.35838 20.999C9.08875 20.5156 8.88548 20.0713 8.76746 19.6674C8.65669 19.2883 8.57378 18.7863 8.74084 18.2906C8.93735 17.7075 9.37445 17.4179 9.76825 17.3133C10.1193 17.2201 10.4768 17.255 10.7592 17.3095C11.3387 17.4214 11.9977 17.6991 12.5755 17.9844C13.1693 18.2777 13.7472 18.6143 14.1845 18.8907C15.7888 19.9045 17.3048 21.0116 18.7787 22.1364Z" fill="white"/>
</svg>
