<svg width="104" height="68" viewBox="0 0 104 68" fill="none" xmlns="http://www.w3.org/2000/svg">
<path fill-rule="evenodd" clip-rule="evenodd" d="M21.9052 25.7356C24.6259 26.0943 27.0695 27.5772 29.1573 29.8887C32.258 33.3216 32.6736 37.409 31.5209 41.2277C30.4291 44.8447 27.9425 48.2901 25.0995 51.2761C22.4165 54.0941 19.1774 56.7485 15.8814 59.0057C17.035 59.721 18.4746 60.2212 20.2653 60.4405C22.6652 60.7344 25.8232 59.9414 28.2422 58.0474C30.5351 56.2521 32.0696 53.5626 31.7156 49.8464C31.5324 47.9221 32.9438 46.2136 34.868 46.0303C36.7923 45.8471 38.5009 47.2585 38.6841 49.1828C39.2902 55.5465 36.5046 60.4685 32.5576 63.5589C28.7367 66.5506 23.7347 67.9176 19.4145 67.3886C15.1763 66.8696 11.899 65.2165 9.51834 62.84C8.0173 63.6202 6.57666 64.2765 5.24998 64.7837C3.44446 65.4741 1.42116 64.57 0.730817 62.7645C0.0404717 60.959 0.944499 58.9357 2.75002 58.2454C3.69045 57.8858 4.7174 57.4261 5.7983 56.8814C5.79251 56.8653 5.78674 56.8492 5.78099 56.8331C3.92734 51.6374 4.3809 45.5561 5.99892 40.3718C7.60072 35.2395 10.5814 30.2404 14.6024 27.5824C16.6819 26.2078 19.1846 25.377 21.9052 25.7356ZM11.9922 53.1849C14.861 51.2148 17.7005 48.8958 20.0298 46.4493C22.535 43.818 24.1826 41.3149 24.8196 39.2048C25.3956 37.2965 25.1348 35.8785 23.9625 34.5807C22.6903 33.1721 21.6689 32.765 20.9903 32.6756C20.3115 32.5861 19.4805 32.749 18.4625 33.4219C16.2885 34.8589 14.0192 38.1697 12.681 42.4573C11.5236 46.1658 11.2443 50.0374 11.9922 53.1849Z" fill="#FF5D98"/>
<path fill-rule="evenodd" clip-rule="evenodd" d="M37.7521 32.1205C38.298 39.8795 41.4663 48.4966 45.4493 53.9732C46.4687 55.3748 48.3604 55.8193 49.8974 55.0183C51.4344 54.2173 52.1536 52.4121 51.5886 50.7736L44.6873 30.7596C44.6821 30.6245 44.678 30.4898 44.675 30.3556C44.5991 26.9956 45.2112 24.434 46.2979 22.8167C47.2401 21.4146 48.7564 20.3747 51.6398 20.3747C52.6478 20.3747 53.6352 20.8249 54.7125 22.2296C55.8482 23.7104 56.8384 25.9769 57.6246 28.8412C59.1876 34.5346 59.6598 41.5047 59.6598 46.1546C59.6598 48.0876 61.2268 49.6546 63.1598 49.6546C65.0928 49.6546 66.6598 48.0876 66.6598 46.1546C66.6598 41.2045 66.172 33.5347 64.3749 26.9881C63.4812 23.7324 62.1914 20.4789 60.2671 17.9697C58.2844 15.3845 55.4319 13.3747 51.6398 13.3747C46.6513 13.3747 42.8516 15.3948 40.4878 18.9126C40.1111 19.4732 39.7786 20.0602 39.4867 20.6685C38.8626 20.52 38.1903 20.5413 37.5389 20.7659C35.7115 21.396 34.7409 23.3882 35.3711 25.2156L37.7521 32.1205Z" fill="#FF5D98"/>
<path fill-rule="evenodd" clip-rule="evenodd" d="M87.2324 2.60199C90.1932 4.57741 92.1797 7.87293 92.1797 12.0747C92.1797 14.0077 90.6127 15.5747 88.6797 15.5747C86.7467 15.5747 85.1797 14.0077 85.1797 12.0747C85.1797 10.2765 84.4159 9.13785 83.3474 8.42495C82.1778 7.64459 80.4777 7.28972 78.7235 7.62695C77.0139 7.95559 75.4124 8.91202 74.3458 10.5522C73.287 12.1806 72.5449 14.8158 73.2041 18.853C74.7097 28.0749 77.3758 31.5735 78.9779 32.5171C79.6178 32.8939 80.1064 32.8922 80.5764 32.729C81.1472 32.5308 81.9352 31.9868 82.712 30.8647C84.5974 28.1414 85.7844 25.1492 86.4995 22.7841C86.8535 21.6129 87.0833 20.6243 87.2228 19.9402C87.2924 19.5989 87.339 19.3356 87.3672 19.1656C87.3813 19.0807 87.3908 19.0193 87.3961 18.9834L87.4011 18.9492L87.4008 18.9515L87.4007 18.9525C87.4009 18.9507 87.4012 18.9488 87.4014 18.947C87.5969 17.5044 88.6651 16.333 90.0843 16.0062C91.5059 15.6789 92.9815 16.2676 93.7873 17.4836C96.1056 20.9822 98.4906 25.3474 100.254 29.9506C102.003 34.5171 103.229 39.5477 102.993 44.298C102.753 49.1473 100.962 53.8598 96.576 57.1984C92.3131 60.443 86.1033 61.9977 77.8244 61.7958C75.892 61.7487 74.3637 60.1439 74.4108 58.2115C74.4579 56.2791 76.0627 54.7507 77.9951 54.7979C85.4602 54.9799 89.8423 53.5266 92.3364 51.6283C94.707 49.8239 95.8382 47.2584 96.002 43.9517C96.1707 40.5461 95.2827 36.5427 93.7167 32.4543C93.1848 31.0656 92.5849 29.6934 91.9423 28.3631C91.0996 30.4261 89.9706 32.6779 88.4674 34.8492C87.0843 36.847 85.1962 38.535 82.872 39.3419C80.4471 40.1837 77.8217 39.9599 75.4256 38.5488C70.9557 35.9163 67.8619 29.5749 66.2955 19.9809C65.4187 14.6101 66.2748 10.1236 68.4774 6.73633C70.6722 3.36087 73.9951 1.40774 77.402 0.752816C80.7642 0.10648 84.3727 0.694039 87.2324 2.60199Z" fill="#FF5D98"/>
</svg>
