<svg width="104" height="68" viewBox="0 0 104 68" fill="none" xmlns="http://www.w3.org/2000/svg">
<path d="M4 61.5145C14.88 57.3546 35.1059 41.6962 26.5599 32.2347C13.12 17.3547 -3.67996 61.0344 19.8399 63.9145C26.5599 64.7374 36.1599 59.5946 35.1999 49.5146" stroke="#FF5D98" stroke-width="7" stroke-linecap="round" stroke-linejoin="round"/>
<path d="M38.6799 24.0747L48.2798 51.9146C40.5999 41.3546 35.8959 16.8747 51.6398 16.8747C61.2398 16.8747 63.1598 36.5546 63.1598 46.1546" stroke="#FF5D98" stroke-width="7" stroke-linecap="round" stroke-linejoin="round"/>
<path d="M88.6797 12.0747C88.6797 0.0747613 66.6778 0.601034 69.7498 19.417C72.8218 38.2329 81.2697 39.0969 85.5897 32.8569C89.9097 26.617 90.8697 19.417 90.8697 19.417C99.6697 32.6969 109.398 59.0648 77.9098 58.2968" stroke="#FF5D98" stroke-width="7" stroke-linecap="round" stroke-linejoin="round"/>
</svg>
