<svg width="30" height="25" viewBox="0 0 30 25" fill="none" xmlns="http://www.w3.org/2000/svg">
<path d="M2.5 7.5C2.5 4.73858 4.59819 2.5 7.18644 2.5H24.37C26.9446 2.5 28.4142 5.63588 26.8695 7.83333L24.6434 11C24.0186 11.8889 24.0186 13.1111 24.6434 14L26.8695 17.1667C28.4142 19.3641 26.9446 22.5 24.37 22.5H7.18644C4.59819 22.5 2.5 20.2614 2.5 17.5V7.5Z" fill="#00D1FF"/>
<path fill-rule="evenodd" clip-rule="evenodd" d="M7.19144 0H24.387C29.2816 0 31.4744 5.66094 28.9348 9.27106L26.7072 12.4377C26.7055 12.4401 26.6933 12.4605 26.6933 12.5C26.6933 12.5395 26.7055 12.5599 26.7072 12.5623L28.9348 15.7289C31.4744 19.3391 29.2816 25 24.387 25H7.19144C3.06956 25 0 21.4871 0 17.5V7.5C0 3.51285 3.06956 0 7.19144 0ZM7.19144 2.5C4.60139 2.5 2.50174 4.73858 2.50174 7.5V17.5C2.50174 20.2614 4.60139 22.5 7.19144 22.5H24.387C26.9633 22.5 28.434 19.3641 26.8882 17.1667L24.6606 14C24.0353 13.1111 24.0353 11.8889 24.6606 11L26.8882 7.83333C28.434 5.63588 26.9633 2.5 24.387 2.5H7.19144Z" fill="#F2F2F2"/>
<path d="M25.9322 15.8333L26.8695 17.1666C28.4142 19.364 26.9446 22.4999 24.37 22.4999H7.18644C4.59819 22.4999 2.5 20.2613 2.5 17.4999V15.8333L25.9322 15.8333Z" fill="#FF5E98"/>
<path d="M25.9322 9.16667L2.5 9.16666V7.5C2.5 4.7397 4.59648 2.50182 7.18328 2.5L24.37 2.5C24.3717 2.5 24.3734 2.5 24.3751 2.5C26.2223 2.50298 27.4994 4.12065 27.5 5.84568V5.8481C27.4998 6.52366 27.3037 7.21558 26.8695 7.83333L25.9322 9.16667Z" fill="white"/>
</svg>
