<svg width="36" height="30" viewBox="0 0 36 30" fill="none" xmlns="http://www.w3.org/2000/svg">
<path d="M3 9C3 5.68629 5.51783 3 8.62372 3H29.244C32.3335 3 34.097 6.76306 32.2434 9.4L29.5721 13.2C28.8223 14.2667 28.8223 15.7333 29.5721 16.8L32.2434 20.6C34.097 23.2369 32.3335 27 29.244 27H8.62372C5.51783 27 3 24.3137 3 21V9Z" fill="#00D1FF"/>
<path fill-rule="evenodd" clip-rule="evenodd" d="M8.62973 0H29.2644C35.1379 0 37.7692 6.79313 34.7218 11.1253L32.0487 14.9253C32.0466 14.9282 32.032 14.9526 32.032 15C32.032 15.0474 32.0466 15.0718 32.0487 15.0747L34.7218 18.8747C37.7693 23.2069 35.1379 30 29.2644 30H8.62973C3.68347 30 0 25.7846 0 21V9C0 4.21542 3.68347 0 8.62973 0ZM8.62973 3C5.52167 3 3.00209 5.68629 3.00209 9V21C3.00209 24.3137 5.52167 27 8.62973 27H29.2644C32.356 27 34.1208 23.2369 32.2658 20.6L29.5927 16.8C28.8423 15.7333 28.8423 14.2667 29.5927 13.2L32.2658 9.4C34.1208 6.76306 32.356 3 29.2644 3H8.62973Z" fill="#F2F2F2"/>
<path d="M31.1186 19L32.2434 20.6C34.097 23.2369 32.3335 27 29.244 27H8.62372C5.51783 27 3 24.3137 3 21V19L31.1186 19Z" fill="#FF5E98"/>
<path d="M31.1186 11L3 11V9C3 5.68764 5.51578 3.00218 8.61994 3L29.244 3C29.2461 3 29.2481 3 29.2502 3C31.4668 3.00358 32.9993 4.94478 33 7.01481V7.01772C32.9997 7.82839 32.7645 8.6587 32.2434 9.4L31.1186 11Z" fill="white"/>
</svg>
