<svg width="15" height="15" viewBox="0 0 15 15" fill="none" xmlns="http://www.w3.org/2000/svg">
<path d="M5.22669 2.44711C5.79946 0.0666609 9.20009 0.0666604 9.77285 2.44711C10.0368 3.54402 11.0626 4.2907 12.1869 4.19757L12.3305 4.18568C14.7232 3.98748 15.7268 7.16885 13.6535 8.37955C12.6662 8.95608 12.2683 10.1838 12.7255 11.2317C13.6884 13.4385 11.0246 15.454 9.17922 13.9075L8.99946 13.7568C8.13186 13.0297 6.86769 13.0297 6.00009 13.7568L5.82032 13.9075C3.97492 15.454 1.31111 13.4385 2.27403 11.2317C2.73125 10.1838 2.33331 8.95608 1.34603 8.37955C-0.727249 7.16885 0.276392 3.98748 2.66909 4.18568L2.81262 4.19757C3.93698 4.2907 4.96277 3.54402 5.22669 2.44711Z" fill="url(#paint0_linear)"/>
<defs>
<linearGradient id="paint0_linear" x1="38.5" y1="-7" x2="-18.5" y2="43.5" gradientUnits="userSpaceOnUse">
<stop offset="0.151573" stop-color="white"/>
<stop offset="0.586976" stop-color="white" stop-opacity="0.3"/>
<stop offset="1" stop-color="white" stop-opacity="0"/>
</linearGradient>
</defs>
</svg>
