<svg width="25" height="20" viewBox="0 0 25 20" fill="none" xmlns="http://www.w3.org/2000/svg">
<path d="M1.48293 8.71005C1.48293 8.71005 12.1807 4.31967 15.8909 2.77372C17.3132 2.15538 22.1364 0.176548 22.1364 0.176548C22.1364 0.176548 24.3626 -0.689117 24.177 1.4133C24.1152 2.27905 23.6205 5.30901 23.1258 8.58638C22.3838 13.2242 21.5799 18.2948 21.5799 18.2948C21.5799 18.2948 21.4562 19.717 20.405 19.9644C19.3538 20.2117 17.6223 19.0987 17.3132 18.8513C17.0658 18.6658 12.6754 15.8831 11.0676 14.5227C10.6348 14.1517 10.1401 13.4097 11.1294 12.544C13.3556 10.5033 16.0146 7.96805 17.6223 6.3603C18.3644 5.61822 19.1064 3.8868 16.0145 5.98921C11.6242 9.01926 7.29559 11.8638 7.29559 11.8638C7.29559 11.8638 6.30618 12.4821 4.45109 11.9255C2.59593 11.3691 0.431634 10.627 0.431634 10.627C0.431634 10.627 -1.05236 9.69946 1.48293 8.71005Z" fill="url(#paint0_linear)"/>
<defs>
<linearGradient id="paint0_linear" x1="11.7943" y1="16" x2="60.238" y2="-8.39395" gradientUnits="userSpaceOnUse">
<stop stop-color="#17E6E6"/>
<stop offset="1" stop-color="#71EBCF"/>
</linearGradient>
</defs>
</svg>
