<svg width="25" height="20" viewBox="0 0 25 20" fill="none" xmlns="http://www.w3.org/2000/svg">
<path d="M24.6099 2.36617C23.7047 2.76784 22.7325 3.03938 21.7102 3.16143C22.7535 2.5367 23.5528 1.54673 23.9301 0.368502C22.9391 0.957115 21.8545 1.3715 20.7235 1.59365C19.803 0.612542 18.4905 0 17.0383 0C14.251 0 11.9906 2.25956 11.9906 5.04845C11.9906 5.4436 12.0351 5.82911 12.1206 6.19924C7.92473 5.98837 4.20481 3.97852 1.71487 0.924547C1.28009 1.67041 1.03123 2.53762 1.03123 3.46288C1.03123 5.21416 1.92262 6.75933 3.27706 7.66446C2.47525 7.63961 1.69104 7.42319 0.989981 7.03328V7.09707C0.989981 9.54333 2.72994 11.5831 5.03964 12.047C4.61535 12.1632 4.17008 12.224 3.70943 12.224C3.38374 12.224 3.06775 12.1932 2.75907 12.1351C3.40153 14.1401 5.26602 15.5996 7.47458 15.6409C5.74674 16.9953 3.56959 17.8027 1.20496 17.8027C0.79768 17.8027 0.395158 17.7784 0 17.7307C2.23456 19.1636 4.88774 20 7.73888 20C17.0246 20 22.103 12.3073 22.103 5.63603C22.103 5.41702 22.0982 5.19963 22.0876 4.98303C23.0771 4.26737 23.9312 3.38125 24.6099 2.36617Z" fill="url(#paint0_linear)"/>
<defs>
<linearGradient id="paint0_linear" x1="12" y1="16" x2="60.9404" y2="-9.0739" gradientUnits="userSpaceOnUse">
<stop stop-color="#17E6E6"/>
<stop offset="1" stop-color="#71EBCF"/>
</linearGradient>
</defs>
</svg>
