<svg width="538" height="500" viewBox="0 0 538 500" fill="none" xmlns="http://www.w3.org/2000/svg">
<path fill-rule="evenodd" clip-rule="evenodd" d="M374.755 -287.343C374.755 -276.487 366.046 -267.687 355.302 -267.687C344.559 -267.687 335.85 -276.487 335.85 -287.343C335.85 -298.199 344.559 -307 355.302 -307C366.046 -307 374.755 -298.199 374.755 -287.343ZM423.516 -246.459C421.701 -237.81 413.401 -232.568 405.101 -234.403C396.542 -236.237 391.355 -244.624 393.429 -253.535C398.098 -275.026 420.663 -294.683 454.64 -291.014C479.28 -288.393 498.214 -272.406 502.882 -250.39C507.032 -229.947 497.954 -210.028 479.799 -199.283C466.956 -191.756 456.149 -191.426 447.628 -191.166L447.378 -191.158C446.702 -191.12 446.043 -191.088 445.399 -191.056C441.589 -190.868 438.293 -190.706 435.188 -189.585C431.556 -188.537 428.444 -187.489 423.775 -175.433C421.182 -169.142 415.476 -165.473 409.251 -165.473C407.435 -165.473 405.36 -165.735 403.545 -166.522C395.504 -169.667 391.614 -178.84 394.726 -186.965C401.989 -205.311 411.066 -214.746 425.591 -219.464C433.245 -221.784 439.895 -222.075 445.788 -222.334L446.081 -222.347C446.408 -222.359 446.73 -222.37 447.047 -222.382C453.523 -222.617 458.031 -222.78 463.718 -226.278C470.461 -230.209 473.574 -236.761 472.018 -243.576C470.721 -250.128 464.496 -257.991 451.009 -259.301C433.372 -261.136 424.813 -252.487 423.516 -246.459ZM413.919 -141.883C413.919 -131.027 405.21 -122.226 394.467 -122.226C383.724 -122.226 375.014 -131.027 375.014 -141.883C375.014 -152.739 383.724 -161.54 394.467 -161.54C405.21 -161.54 413.919 -152.739 413.919 -141.883ZM234.956 -179.362C236.772 -179.362 238.846 -179.624 240.662 -180.41L276.714 -194.825L300.316 -165.995C303.429 -162.326 307.838 -160.229 312.247 -160.229C315.619 -160.229 319.25 -161.278 322.103 -163.898C328.847 -169.402 329.625 -179.362 324.178 -185.914L307.06 -206.881L332.478 -217.103C340.518 -220.248 344.409 -229.421 341.296 -237.545C338.184 -245.67 329.106 -249.602 321.066 -246.456L286.051 -232.566L261.93 -262.444C256.483 -269.258 246.627 -270.044 240.143 -264.541C233.4 -259.037 232.622 -249.077 238.068 -242.525L255.965 -220.51L229.25 -209.764C221.21 -206.619 217.319 -197.446 220.431 -189.321C223.025 -183.031 228.731 -179.362 234.956 -179.362ZM264.783 -23.4198C259.337 -23.4198 253.89 -26.3028 251.037 -31.8066L202.276 -126.421C198.385 -134.283 201.498 -143.719 209.02 -147.65C216.541 -151.581 226.138 -148.436 230.028 -140.836L278.789 -46.4836C282.68 -38.621 279.567 -29.1858 272.046 -25.2544C269.711 -23.944 267.118 -23.4198 264.783 -23.4198ZM286.311 19.563C297.054 19.563 305.763 10.7625 305.763 -0.0936279C305.763 -10.9497 297.054 -19.7503 286.311 -19.7503C275.567 -19.7503 266.858 -10.9497 266.858 -0.0936279C266.858 10.7625 275.567 19.563 286.311 19.563ZM323.401 -103.88C323.401 -112.529 330.403 -119.606 338.963 -119.606C347.522 -119.606 354.525 -112.529 354.525 -103.88V-63.5187L466.312 -105.453C474.352 -108.598 483.171 -104.405 486.283 -96.2798C489.395 -88.155 485.246 -79.244 477.205 -76.0989L344.409 -26.3021C342.594 -25.5158 340.778 -25.2537 338.963 -25.2537C335.85 -25.2537 332.738 -26.302 330.144 -28.1367C325.994 -31.0197 323.401 -35.7372 323.401 -40.979V-103.88ZM508.069 -125.11C518.963 -104.143 540.75 -90.776 561.499 -90.776C565.649 -90.776 570.058 -91.3001 573.949 -92.6106C585.88 -96.0177 594.957 -104.143 599.885 -115.15C605.332 -127.73 604.295 -143.194 597.032 -157.084C584.064 -182.245 555.015 -196.398 530.894 -189.583C518.963 -186.176 509.885 -178.052 504.957 -167.044C499.77 -154.464 500.807 -139 508.069 -125.11ZM533.747 -154.726C534.784 -157.084 536.6 -158.657 539.453 -159.443C540.75 -159.705 542.047 -159.967 543.603 -159.967C552.162 -159.967 563.574 -153.677 569.539 -142.67C572.392 -137.166 573.171 -131.662 571.355 -127.73C570.318 -125.372 568.502 -123.799 565.649 -123.013C556.83 -120.392 542.306 -126.682 535.822 -139.787C532.969 -145.29 532.191 -150.794 533.747 -154.726ZM577.061 -6.64627C565.649 -23.42 565.649 -43.6008 577.321 -58.0157C590.808 -74.5273 614.929 -78.4586 638.272 -68.2371C661.874 -58.0157 682.364 -34.4277 675.88 -9.26715C673.805 -0.88031 665.246 4.09937 656.946 2.00266C648.646 -0.0940552 643.719 -8.74298 645.793 -17.1298C646.572 -20.537 643.459 -31.8068 626.082 -39.4074C614.151 -44.6491 605.073 -42.5524 601.442 -38.0969C598.589 -34.6898 599.107 -29.7101 602.739 -24.4683C606.53 -18.9603 610.539 -16.5157 615.753 -13.3358C616.245 -13.0356 616.748 -12.7288 617.263 -12.4122C622.191 -9.52924 627.897 -6.1221 633.603 -0.618225C644.497 10.1274 648.387 21.6593 647.09 39.7434C646.572 48.1303 639.569 54.4204 631.528 54.4204H630.491C621.932 53.8962 615.448 46.2957 615.966 37.6467C616.727 27.1362 614.759 25.151 612.003 22.3713L611.816 22.1835C608.963 19.3005 605.592 17.2038 601.442 14.845L601.137 14.6584L600.653 14.3622L600.622 14.343L600.52 14.2805L600.492 14.2634C593.398 9.92496 584.755 4.63879 577.061 -6.64627ZM574.727 -214.481C584.064 -209.24 595.995 -212.909 600.923 -222.344C606.11 -231.779 602.479 -243.835 593.142 -248.815C583.805 -253.795 571.874 -250.388 566.946 -240.952C562.018 -231.517 565.39 -219.723 574.727 -214.481ZM333.775 111.817L324.697 144.054C322.622 150.868 316.398 155.323 309.654 155.323C308.357 155.323 306.801 155.323 305.504 154.799C297.205 152.44 292.536 143.792 294.87 135.405L305.245 98.1881L267.896 80.6281C260.115 76.9589 256.743 67.5237 260.374 59.661C264.006 51.7983 273.343 48.3912 281.124 52.0605L313.804 67.5237L322.622 36.3351C324.957 27.9483 333.516 23.2307 341.816 25.5895C350.115 27.9483 354.784 36.5972 352.45 44.9841L342.334 80.8902L380.721 99.2365C388.502 102.906 391.874 112.341 388.242 120.204C385.649 125.97 380.202 129.377 374.237 129.377C372.162 129.377 369.827 128.852 367.752 127.804L333.775 111.817ZM501.067 -40.1935L439.337 22.9699C433.372 29.26 433.372 39.2194 439.597 45.2474C442.709 48.3925 446.6 49.703 450.49 49.703C454.381 49.703 458.531 48.1304 461.643 44.9854L523.372 -18.1781C529.338 -24.4682 529.338 -34.4276 523.113 -40.4556C516.888 -46.4837 507.032 -46.4837 501.067 -40.1935ZM426.917 45.5268C436.166 46.6116 442.846 54.6009 441.839 63.3713C440.831 72.1418 432.517 78.3722 423.269 77.2874C414.02 76.2025 407.339 68.2133 408.347 59.4429C409.354 50.6724 417.669 44.442 426.917 45.5268ZM481.614 125.969C474.87 120.466 465.014 121.776 459.827 128.59C454.38 135.405 455.677 145.364 462.421 150.606L511.182 189.919C514.035 192.278 517.407 193.326 520.778 193.326C522.335 193.326 523.891 193.064 525.188 192.54C530.115 190.967 534.006 187.298 535.562 182.319L579.914 46.2945C582.508 38.1697 578.098 29.2587 570.058 26.3757C562.018 23.7548 553.199 28.2103 550.346 36.3351L512.997 150.868L481.614 125.969ZM604.295 87.4423C625.563 74.0758 657.206 79.8417 676.658 100.285C687.551 111.817 692.739 126.231 690.923 139.598C689.367 151.654 682.883 162.138 672.249 168.69C664.468 173.669 655.39 176.028 645.793 176.028C629.453 176.028 612.076 169.214 599.885 156.11C588.992 144.578 583.805 130.163 585.62 116.534C587.177 104.478 593.661 93.9945 604.295 87.4423ZM655.909 142.219C658.243 140.646 659.799 138.55 660.059 135.929C660.577 131.735 658.243 126.494 654.093 121.776C647.35 114.7 638.272 111.554 630.75 111.554C626.86 111.554 623.228 112.603 620.635 114.175C618.301 115.748 616.744 117.845 616.485 120.465C615.966 124.659 618.301 129.901 622.45 134.356C632.566 145.102 648.128 147.199 655.909 142.219ZM370.346 233.164C373.717 232.902 381.758 232.902 384.351 241.027C389.539 257.539 402.766 268.546 418.847 270.119C433.891 271.429 448.156 263.567 455.159 249.938C461.643 237.096 465.533 236.571 470.461 237.096C477.723 237.882 480.058 241.289 486.283 255.442L487.061 257.014C491.989 267.76 501.326 275.885 512.479 279.292C524.41 282.961 537.378 280.865 548.012 274.05C558.817 267.194 562.806 259.847 565.638 254.629L565.663 254.583C565.745 254.431 565.827 254.28 565.908 254.131C567.464 250.986 568.243 249.414 571.096 247.317C572.652 246.269 576.542 245.745 579.655 247.579C584.064 250.2 585.101 251.773 586.658 258.063C587.954 263.567 593.401 281.651 608.963 289.251C612.594 291.086 617.263 292.396 622.969 292.396C627.638 292.396 633.344 291.348 639.309 288.465C647.09 284.796 650.462 275.361 646.831 267.498C643.2 259.635 633.862 256.228 626.081 259.897C624.006 260.946 622.71 260.946 622.191 260.684C620.375 259.897 617.782 255.442 616.485 250.462C613.891 239.979 609.741 229.233 595.476 220.584C581.73 212.197 563.833 212.983 551.902 222.419C543.862 228.709 540.49 234.999 538.156 239.717C536.34 243.386 535.562 244.958 531.412 247.579C527.263 250.2 523.372 249.676 521.297 249.152C519.741 248.628 516.888 247.317 515.332 243.91L514.554 242.337L514.3 241.783C507.844 227.683 499.176 208.753 473.833 205.907C444.39 202.775 431.921 227.191 427.719 235.419L427.666 235.523C426.109 238.668 423.256 238.93 421.7 238.93C420.144 238.668 415.994 237.882 414.179 231.854C405.619 204.335 379.164 200.665 366.455 202.5C357.896 203.81 351.931 211.673 352.968 220.322C354.005 228.971 361.786 234.475 370.346 233.164ZM159.999 87.9675C151.44 86.395 145.993 78.2702 147.55 69.6213L169.596 -46.4841C171.152 -55.133 179.192 -60.6369 187.752 -59.0644C196.311 -57.4918 201.757 -49.3671 200.201 -40.7181L178.155 75.3872C176.599 82.9878 170.115 88.2296 162.852 88.2296C162.074 88.2296 161.037 88.2296 159.999 87.9675ZM204.87 113.391C212.132 113.391 218.616 108.149 220.172 100.548L242.219 -15.5569C243.775 -24.2058 238.328 -32.3306 229.769 -33.9031C221.21 -35.4756 213.17 -29.9718 211.613 -21.3228L189.567 94.7825C188.011 103.431 193.458 111.556 202.017 113.129C203.054 113.391 203.832 113.391 204.869 113.391H204.87ZM259.856 262.782C258.818 254.395 265.043 246.533 273.602 245.484C277.752 245.222 287.089 237.884 287.608 219.013C288.127 205.123 281.902 198.046 276.455 196.212C271.527 194.639 266.599 196.998 262.709 202.502C258.584 208.233 257.79 213.446 256.762 220.201L256.743 220.324C255.965 226.09 254.928 232.904 251.815 240.243C245.85 254.395 236.253 262.52 218.616 267.762C210.317 270.383 201.498 265.665 199.164 257.278C196.57 248.892 201.239 239.981 209.538 237.622C220.348 234.241 221.453 231.634 222.989 228.009L223.025 227.924C224.412 224.655 224.975 221.178 225.632 217.121C225.712 216.625 225.794 216.12 225.879 215.606C227.175 206.957 228.991 196.212 237.031 184.418C248.703 167.382 267.896 160.306 286.052 166.334C306.542 172.886 319.51 194.115 318.732 219.8C317.954 254.133 297.204 274.314 277.233 276.673H275.418C267.377 276.673 260.893 270.907 259.856 262.782ZM183.793 292.693C193.73 288.567 198.477 277.083 194.394 267.041C190.312 256.999 178.946 252.202 169.009 256.328C159.071 260.453 154.325 271.938 158.407 281.98C162.49 292.022 173.855 296.818 183.793 292.693ZM517.925 328.564C526.485 327.254 534.266 333.282 535.562 341.931C536.859 350.58 530.894 358.442 521.816 359.491L484.727 364.732L494.582 396.969C496.917 405.356 492.508 414.005 484.208 416.626C482.652 417.15 481.095 417.412 479.539 417.412C473.055 417.412 466.83 413.219 464.755 406.405L453.602 369.45L412.882 375.216C412.363 375.478 411.585 375.478 410.807 375.478C403.285 375.478 396.542 369.712 395.504 361.849C394.207 353.2 400.173 345.338 408.732 344.027L444.525 339.048L435.187 308.121C432.853 299.734 437.262 291.085 445.562 288.465C453.862 286.106 462.421 290.561 465.015 298.948L475.908 334.592L517.925 328.564ZM373.977 340.622C377.349 328.565 375.274 316.509 368.271 306.55C360.49 295.28 347.003 288.204 331.441 287.155C303.429 285.321 276.196 302.619 269.452 326.993C266.081 339.049 268.155 351.105 275.158 361.065C282.939 372.334 296.426 379.411 311.988 380.459C312.636 380.459 313.349 380.525 314.061 380.59L314.063 380.59L314.066 380.59C314.778 380.656 315.491 380.721 316.138 380.721C342.853 380.721 367.752 363.685 373.977 340.622ZM344.15 331.973C341.816 340.884 328.847 350.057 314.323 349.008C308.098 348.484 303.17 346.125 300.576 342.718C299.02 340.622 298.761 338.001 299.539 335.118C301.873 326.731 313.545 318.082 327.291 318.082H329.366C335.591 318.606 340.519 320.965 343.112 324.372C344.409 326.731 344.928 329.09 344.15 331.973ZM80.1143 -8.48053C77.0019 -8.48053 73.8895 -9.5289 71.0364 -11.3635C51.3245 -25.2542 45.3591 -41.7658 53.3995 -60.1121C62.4773 -81.6034 81.9298 -86.0589 97.4918 -89.466L99.048 -89.7281C102.42 -90.5144 105.532 -92.6111 106.829 -95.232C108.385 -97.8529 107.607 -99.6875 107.348 -100.212C106.31 -103.095 105.792 -103.619 102.679 -105.716C98.7887 -108.336 93.0826 -112.53 88.6734 -121.179C81.9298 -134.283 85.8203 -151.319 97.7512 -162.327C108.385 -172.286 118.241 -174.645 129.913 -175.431C135.878 -175.693 141.065 -177.79 142.362 -179.1C142.362 -179.209 142.318 -179.318 142.266 -179.445C142.192 -179.625 142.103 -179.842 142.103 -180.149C140.287 -188.536 145.734 -196.922 154.034 -198.757C162.334 -200.592 170.633 -195.088 172.449 -186.701C175.043 -174.121 170.893 -165.472 167.002 -160.23C156.627 -146.339 137.175 -144.243 131.469 -143.98C124.725 -143.456 122.391 -142.67 118.501 -139.001C116.685 -137.428 116.166 -135.594 116.166 -135.069C116.925 -133.536 117.684 -132.999 120.126 -131.272L120.316 -131.138C124.985 -127.993 131.728 -123.013 136.137 -111.219C140.028 -100.998 139.25 -89.7281 134.063 -80.0308C128.097 -69.2852 117.722 -61.4225 105.532 -58.8016L103.976 -58.5395C88.9327 -55.1324 84.2641 -53.2977 81.9298 -47.5318C80.8924 -45.173 80.3736 -43.3384 89.1921 -37.0482C96.195 -32.0685 97.7512 -22.1092 92.8232 -15.0327C89.7108 -10.8393 85.0422 -8.48053 80.1143 -8.48053ZM132.247 108.673C138.472 102.645 138.731 92.6858 132.766 86.3957C126.8 80.1055 116.944 79.8434 110.719 85.8714L40.1717 153.753L29.2783 139.862C24.0909 133.047 14.235 131.737 7.49147 137.241C0.747927 142.483 -0.548908 152.442 4.8978 159.256L26.1659 186.776C28.7595 190.183 32.9094 192.542 37.3186 192.804H38.3561C42.2466 192.804 46.1371 191.231 48.9902 188.348L132.247 108.673ZM102.679 202.763C114.61 205.122 124.207 212.722 129.913 223.73C141.584 246.008 133.544 277.72 111.757 295.28C101.901 303.405 90.7486 307.599 79.8551 307.599C77.0021 307.599 74.4084 307.336 71.5554 306.812C59.6245 304.453 50.028 296.853 44.3219 285.845C32.9097 263.568 40.6907 231.855 62.4776 214.033C74.6678 204.073 89.1924 199.88 102.679 202.763ZM77.7802 276.148C81.9301 276.934 87.3768 275.1 92.0454 271.168C103.458 261.995 106.57 246.27 102.161 238.407C100.604 235.786 98.7889 234.214 96.1953 233.69C95.4172 233.427 94.8984 233.427 94.1203 233.427C90.2298 233.427 85.8206 235 81.9301 238.407C70.7773 247.58 67.6649 263.306 71.8148 271.43C73.371 274.051 75.1865 275.624 77.7802 276.148ZM635.159 317.034C601.96 307.86 576.802 323.848 568.761 344.029C565.649 352.153 569.539 361.327 577.58 364.472C585.62 367.617 594.698 363.685 597.81 355.561C599.885 349.795 610.001 342.718 627.119 347.436C640.087 351.105 645.015 359.492 645.534 366.568C645.793 373.645 641.903 379.411 634.64 382.294C628.604 384.734 624.141 384.221 617.904 383.504L617.864 383.499C617.414 383.447 616.954 383.395 616.485 383.342C610.519 382.556 603.776 381.769 595.735 382.818C580.433 385.177 570.317 393.039 560.202 410.075C555.793 417.414 558.127 427.111 565.649 431.566C568.242 433.139 570.836 433.663 573.689 433.663C578.877 433.663 584.064 431.042 587.176 426.062C593.66 415.055 596.773 414.531 600.663 414.006C604.166 413.534 607.459 413.912 611.488 414.375H611.489H611.49L611.491 414.375C611.936 414.426 612.39 414.478 612.854 414.531L613.321 414.588L613.652 414.629C622.087 415.669 632.73 416.982 646.053 411.648C665.764 404.047 677.955 385.701 676.917 364.996C675.361 342.456 659.021 323.586 635.159 317.034ZM561.441 441.021C566.559 450.566 563.051 462.496 553.605 467.668C544.16 472.839 532.354 469.295 527.236 459.75C522.117 450.205 525.625 438.275 535.071 433.103C544.517 427.932 556.323 431.476 561.441 441.021ZM149.365 333.02C144.437 325.944 134.841 323.847 127.838 328.827C120.835 333.806 118.76 343.504 123.688 350.58L189.308 448.339C192.42 452.795 197.089 455.153 202.276 455.153C205.388 455.153 208.241 454.367 211.094 452.533C218.097 447.553 220.172 437.856 215.244 430.779L149.365 333.02ZM203.054 359.229C210.057 354.249 219.654 356.346 224.582 363.422L290.461 461.182C295.389 468.258 293.314 477.955 286.311 482.935C283.458 484.77 280.605 485.556 277.493 485.556C272.305 485.556 267.637 483.197 264.524 478.741L198.904 380.982C193.976 373.906 196.051 364.209 203.054 359.229ZM394.467 399.067C376.052 396.184 358.934 408.503 355.821 427.111C353.487 442.05 361.009 456.203 373.458 462.755C369.308 465.376 364.64 467.21 359.453 468.259C350.893 469.831 345.447 478.218 347.262 486.867C348.818 494.468 355.303 499.447 362.565 499.447C363.602 499.447 364.64 499.447 365.677 499.185C400.432 492.371 414.179 465.9 419.366 450.961C420.144 448.602 420.922 446.243 421.441 443.884C421.96 442.312 421.96 440.739 421.96 439.167C421.96 439.036 422.025 438.839 422.09 438.643C422.154 438.446 422.219 438.25 422.219 438.118C425.072 419.51 412.623 401.95 394.467 399.067ZM648.387 -84.224C647.349 -83.9619 646.312 -83.9619 645.274 -83.9619C638.012 -83.9619 631.528 -89.2037 629.972 -96.5421C628.156 -105.191 633.862 -113.578 642.162 -115.15C647.349 -116.199 652.018 -118.033 656.168 -120.654C643.718 -127.207 636.197 -141.359 638.531 -156.298C641.643 -174.907 658.762 -187.225 677.177 -184.342C695.592 -181.197 707.782 -163.899 704.929 -145.291C704.929 -145.16 704.864 -144.964 704.799 -144.767L704.799 -144.767C704.734 -144.57 704.669 -144.373 704.669 -144.242C704.669 -142.67 704.669 -141.097 704.151 -139.525C703.632 -137.166 702.854 -134.807 702.076 -132.448C696.888 -117.509 683.142 -91.0383 648.387 -84.224ZM719.454 -38.6209C730.197 -38.6209 738.906 -47.4215 738.906 -58.2776C738.906 -69.1337 730.197 -77.9343 719.454 -77.9343C708.71 -77.9343 700.001 -69.1337 700.001 -58.2776C700.001 -47.4215 708.71 -38.6209 719.454 -38.6209ZM741.24 133.834C744.093 125.71 753.171 121.516 761.212 124.399C769.252 127.282 773.661 136.193 770.289 144.58L735.534 241.291C733.459 247.843 727.494 251.774 721.01 251.774C719.453 251.774 717.638 251.25 715.822 250.726C707.782 247.843 703.632 238.67 706.485 230.545L741.24 133.834ZM716.132 296.049C725.042 289.982 727.397 277.765 721.392 268.762C715.388 259.759 703.298 257.379 694.388 263.447C685.479 269.514 683.124 281.731 689.128 290.734C695.133 299.737 707.223 302.117 716.132 296.049ZM416.494 146.304C426.255 150.84 430.528 162.512 426.04 172.375C421.551 182.237 410 186.556 400.24 182.02C390.48 177.485 386.206 165.812 390.695 155.95C395.183 146.087 406.734 141.768 416.494 146.304ZM209.538 157.945C209.279 156.11 209.019 154.276 208.241 152.703V151.917C205.647 137.24 189.048 129.115 171.152 133.833C153.255 138.55 141.065 154.276 143.659 168.953C145.734 179.698 155.071 187.037 167.002 188.085C164.667 190.182 161.814 192.279 158.443 194.375C151.18 198.831 148.587 208.528 152.996 215.867C155.849 220.846 161.036 223.467 166.483 223.467C169.077 223.467 171.93 222.681 174.523 221.108C204.351 203.024 209.538 177.864 210.057 164.235C209.538 162.401 209.538 160.042 209.538 157.945ZM765.102 5.93463C758.359 0.430756 748.503 1.47913 743.316 8.29343C737.869 15.1077 738.906 25.0671 745.65 30.3089C745.65 30.3089 756.025 38.9578 748.762 54.9453C745.131 62.8079 748.762 72.2431 756.543 75.6502C758.618 76.6986 760.953 76.9607 763.027 76.9607C768.993 76.9607 774.699 73.5535 777.293 67.7876C790.78 37.6474 775.218 14.0594 765.102 5.93463ZM718.157 91.6369C716.082 91.6369 713.747 91.3748 711.672 90.3265C703.891 86.9193 700.52 77.4841 703.891 69.6214C706.485 64.1176 707.782 59.662 707.263 55.9928C706.226 48.9164 700.779 44.9851 700.779 44.9851C694.036 39.7433 692.998 29.7839 698.445 22.9696C703.632 16.1553 713.488 15.1069 720.232 20.6108C726.716 25.5905 736.053 36.8603 738.128 51.7994C739.425 60.7104 737.609 70.9319 732.422 82.4638C729.828 88.2298 724.122 91.6369 718.157 91.6369ZM19.4226 79.8423C21.4975 79.8423 23.8318 79.3181 25.9067 78.5319C33.6877 74.8626 37.0595 65.6895 33.6877 57.8268C27.1189 43.6031 34.9797 35.1688 36.5407 33.4938C36.7055 33.317 36.8001 33.2155 36.8001 33.1905C43.5437 27.6866 44.5811 17.7272 39.1344 11.175C33.6877 4.36072 23.8318 3.31235 17.3476 8.81622C7.23231 16.941 -8.3297 40.529 5.41674 70.9313C8.01041 76.1731 13.7165 79.8423 19.4226 79.8423ZM70.5176 93.2086C68.4427 93.9949 66.1084 94.5191 64.0335 94.5191C58.3274 94.5191 52.6213 91.1119 49.7683 85.346C44.8403 74.0762 42.7654 63.8547 44.0622 54.6816C46.3965 39.7426 55.7337 28.7348 61.9585 23.493C68.4427 17.9892 78.2987 19.0375 83.7454 25.8518C89.1921 32.4041 88.1546 42.3634 81.411 47.8673C81.411 47.8673 75.9643 51.7986 74.9269 58.875C74.4081 62.5443 75.705 66.9998 78.2987 72.5037C81.6704 80.3663 78.2987 89.5394 70.5176 93.2086Z" fill="url(#paint0_linear)"/>
<defs>
<linearGradient id="paint0_linear" x1="-21.5" y1="483" x2="390.726" y2="140.171" gradientUnits="userSpaceOnUse">
<stop stop-color="white" stop-opacity="0"/>
<stop offset="1" stop-color="white" stop-opacity="0.2"/>
</linearGradient>
</defs>
</svg>
