<svg width="647" height="667" viewBox="0 0 647 667" fill="none" xmlns="http://www.w3.org/2000/svg">
<path opacity="0.9" fill-rule="evenodd" clip-rule="evenodd" d="M309.697 16.2442C309.697 25.2157 302.499 32.4885 293.621 32.4885C284.743 32.4885 277.546 25.2157 277.546 16.2442C277.546 7.2728 284.743 0 293.621 0C302.499 0 309.697 7.2728 309.697 16.2442ZM349.994 50.0313C348.493 57.1787 341.634 61.5105 334.775 59.9944C327.702 58.4783 323.415 51.5474 325.13 44.1833C328.988 26.423 347.636 10.1787 375.714 13.211C396.077 15.3769 411.724 28.5889 415.582 46.7824C419.011 63.6764 411.509 80.1373 396.505 89.0175C385.892 95.2376 376.961 95.5104 369.919 95.7255L369.713 95.7318C369.155 95.7631 368.61 95.7899 368.077 95.8161C364.929 95.971 362.205 96.105 359.639 97.0313C356.638 97.8977 354.066 98.764 350.208 108.727C348.064 113.925 343.349 116.958 338.205 116.958C336.704 116.958 334.99 116.741 333.489 116.091C326.845 113.492 323.63 105.911 326.202 99.1972C332.203 84.0359 339.705 76.2387 351.708 72.34C358.033 70.4226 363.529 70.1817 368.399 69.9682L368.641 69.9576C368.908 69.9476 369.171 69.938 369.429 69.9286L369.44 69.9283C374.791 69.7344 378.517 69.5993 383.216 66.7087C388.789 63.4599 391.361 58.0451 390.075 52.4138C389.004 46.999 383.859 40.5013 372.714 39.4184C358.138 37.9022 351.065 45.0497 349.994 50.0313ZM342.063 136.453C342.063 145.424 334.866 152.697 325.987 152.697C317.109 152.697 309.912 145.424 309.912 136.453C309.912 127.481 317.109 120.208 325.987 120.208C334.866 120.208 342.063 127.481 342.063 136.453ZM194.168 105.48C195.668 105.48 197.383 105.264 198.884 104.614L228.677 92.7013L248.182 116.526C250.754 119.558 254.398 121.291 258.042 121.291C260.828 121.291 263.829 120.425 266.187 118.259C271.759 113.711 272.402 105.48 267.901 100.065L253.755 82.7382L274.76 74.2912C281.405 71.6921 284.62 64.1114 282.048 57.3972C279.476 50.6829 271.974 47.434 265.329 50.0331L236.393 61.5124L216.46 36.8211C211.958 31.1898 203.813 30.54 198.455 35.0884C192.882 39.6368 192.239 47.8672 196.74 53.2819L211.53 71.4755L189.453 80.3557C182.808 82.9548 179.593 90.5354 182.165 97.2497C184.308 102.448 189.024 105.48 194.168 105.48ZM218.817 234.35C214.316 234.35 209.815 231.968 207.457 227.42L167.161 149.231C163.946 142.733 166.518 134.936 172.734 131.687C178.95 128.438 186.88 131.037 190.095 137.318L230.391 215.29C233.606 221.788 231.034 229.585 224.819 232.834C222.889 233.917 220.746 234.35 218.817 234.35ZM236.606 269.871C245.484 269.871 252.682 262.599 252.682 253.627C252.682 244.656 245.484 237.383 236.606 237.383C227.728 237.383 220.531 244.656 220.531 253.627C220.531 262.599 227.728 269.871 236.606 269.871ZM267.258 167.858C267.258 160.71 273.045 154.862 280.118 154.862C287.192 154.862 292.979 160.71 292.979 167.858V201.213L385.36 166.558C392.004 163.959 399.292 167.425 401.864 174.139C404.436 180.853 401.007 188.217 394.362 190.816L284.62 231.969C283.119 232.618 281.619 232.835 280.118 232.835C277.546 232.835 274.974 231.969 272.831 230.452C269.401 228.07 267.258 224.171 267.258 219.84V167.858ZM419.868 150.314C428.87 167.641 446.875 178.687 464.022 178.687C467.452 178.687 471.095 178.254 474.311 177.171C484.17 174.356 491.672 167.641 495.745 158.544C500.246 148.148 499.388 135.369 493.387 123.89C482.67 103.097 458.664 91.4016 438.73 97.0329C428.87 99.8486 421.368 106.563 417.296 115.66C413.009 126.056 413.867 138.835 419.868 150.314ZM441.088 125.839C441.945 123.89 443.446 122.591 445.803 121.941C446.875 121.724 447.947 121.508 449.233 121.508C456.306 121.508 465.737 126.706 470.667 135.803C473.025 140.351 473.668 144.899 472.167 148.148C471.31 150.097 469.809 151.397 467.452 152.047C460.164 154.213 448.161 149.014 442.803 138.185C440.445 133.637 439.802 129.088 441.088 125.839ZM476.883 248.212C467.452 234.35 467.452 217.673 477.098 205.76C488.243 192.115 508.177 188.866 527.468 197.313C546.973 205.76 563.906 225.254 558.547 246.046C556.832 252.977 549.759 257.092 542.9 255.36C536.041 253.627 531.969 246.479 533.684 239.548C534.327 236.733 531.754 227.419 517.394 221.138C507.534 216.807 500.032 218.539 497.031 222.221C494.673 225.037 495.102 229.152 498.103 233.484C501.237 238.036 504.549 240.056 508.858 242.684C509.265 242.932 509.681 243.185 510.106 243.447C514.179 245.83 518.894 248.645 523.609 253.194C532.612 262.074 535.827 271.604 534.755 286.548C534.327 293.479 528.539 298.678 521.895 298.678H521.037C513.964 298.244 508.606 291.963 509.034 284.816C509.663 276.13 508.036 274.489 505.759 272.192L505.605 272.037C503.247 269.654 500.461 267.922 497.031 265.972C496.772 265.814 496.51 265.653 496.246 265.492C490.384 261.906 483.241 257.538 476.883 248.212ZM474.954 76.4573C482.67 80.7891 492.53 77.7568 496.602 69.9596C500.889 62.1624 497.888 52.1992 490.172 48.084C482.456 43.9688 472.596 46.7845 468.524 54.5817C464.451 62.379 467.238 72.1255 474.954 76.4573ZM275.831 346.11L268.33 372.75C266.615 378.382 261.471 382.064 255.898 382.064C254.826 382.064 253.54 382.064 252.468 381.631C245.609 379.681 241.751 372.534 243.68 365.603L252.254 334.847L221.389 320.336C214.959 317.303 212.172 309.506 215.173 303.008C218.174 296.511 225.89 293.695 232.32 296.727L259.327 309.506L266.615 283.732C268.544 276.801 275.617 272.902 282.476 274.852C289.335 276.801 293.193 283.948 291.264 290.879L282.905 320.552L314.627 335.713C321.057 338.746 323.844 346.543 320.843 353.041C318.7 357.806 314.198 360.621 309.269 360.621C307.554 360.621 305.625 360.188 303.91 359.322L275.831 346.11ZM414.082 220.489L363.068 272.687C358.139 277.885 358.139 286.115 363.283 291.097C365.855 293.696 369.07 294.779 372.285 294.779C375.5 294.779 378.93 293.479 381.502 290.88L432.515 238.682C437.445 233.484 437.445 225.254 432.301 220.272C427.156 215.29 419.011 215.29 414.082 220.489ZM352.804 291.328C360.447 292.224 365.968 298.827 365.135 306.075C364.303 313.322 357.432 318.471 349.789 317.575C342.146 316.678 336.625 310.076 337.458 302.828C338.29 295.58 345.161 290.431 352.804 291.328ZM398.006 357.806C392.433 353.257 384.288 354.34 380.001 359.971C375.5 365.603 376.572 373.833 382.145 378.165L422.441 410.654C424.798 412.603 427.585 413.469 430.371 413.469C431.657 413.469 432.943 413.253 434.015 412.819C438.087 411.52 441.302 408.488 442.589 404.372L479.241 291.962C481.384 285.248 477.74 277.884 471.096 275.501C464.451 273.335 457.164 277.018 454.806 283.732L423.941 378.382L398.006 357.806ZM499.389 325.967C516.965 314.921 543.114 319.686 559.19 336.58C568.192 346.11 572.479 358.022 570.979 369.068C569.693 379.031 564.334 387.695 555.546 393.11C549.116 397.225 541.614 399.174 533.683 399.174C520.18 399.174 505.819 393.543 495.745 382.713C486.743 373.183 482.456 361.271 483.956 350.008C485.242 340.045 490.601 331.382 499.389 325.967ZM542.043 371.234C543.972 369.935 545.258 368.202 545.472 366.036C545.901 362.57 543.972 358.239 540.542 354.34C534.969 348.492 527.467 345.893 521.252 345.893C518.036 345.893 515.036 346.759 512.892 348.059C510.963 349.358 509.677 351.091 509.463 353.257C509.034 356.723 510.963 361.054 514.393 364.736C522.752 373.617 535.612 375.349 542.043 371.234ZM306.054 446.391C308.84 446.175 315.485 446.175 317.628 452.889C321.915 466.534 332.846 475.631 346.135 476.931C358.567 478.013 370.356 471.516 376.143 460.253C381.501 449.64 384.717 449.207 388.789 449.64C394.791 450.29 396.72 453.106 401.864 464.801L402.507 466.101C406.579 474.981 414.296 481.695 423.512 484.511C433.372 487.543 444.089 485.811 452.877 480.179C461.806 474.514 465.102 468.442 467.443 464.13C467.518 463.991 467.593 463.854 467.666 463.719C468.952 461.119 469.595 459.82 471.953 458.087C473.239 457.221 476.454 456.788 479.026 458.304C482.67 460.47 483.528 461.769 484.814 466.967C485.885 471.516 490.386 486.46 503.247 492.742C506.248 494.258 510.106 495.341 514.821 495.341C518.679 495.341 523.395 494.474 528.325 492.092C534.755 489.06 537.541 481.262 534.541 474.765C531.54 468.267 523.824 465.451 517.393 468.484C515.679 469.35 514.607 469.35 514.178 469.133C512.678 468.484 510.534 464.801 509.463 460.686C507.319 452.023 503.89 443.142 492.101 435.995C480.741 429.064 465.952 429.714 456.092 437.511C449.447 442.709 446.661 447.907 444.732 451.806C443.232 454.838 442.589 456.138 439.159 458.304C435.73 460.47 432.515 460.036 430.8 459.603C429.514 459.17 427.156 458.087 425.87 455.271L425.227 453.972L425.017 453.514C419.682 441.862 412.519 426.217 391.575 423.866C367.244 421.278 356.939 441.455 353.467 448.255L353.423 448.341C352.137 450.94 349.779 451.156 348.493 451.156C347.207 450.94 343.777 450.29 342.277 445.308C335.204 422.566 313.341 419.534 302.838 421.05C295.765 422.133 290.835 428.631 291.693 435.778C292.55 442.926 298.98 447.474 306.054 446.391ZM132.224 326.401C125.151 325.101 120.649 318.387 121.935 311.239L140.154 215.29C141.44 208.143 148.085 203.594 155.158 204.894C162.231 206.193 166.733 212.908 165.447 220.055L147.228 316.004C145.942 322.286 140.583 326.617 134.582 326.617C133.939 326.617 133.081 326.617 132.224 326.401ZM169.304 347.411C175.306 347.411 180.664 343.079 181.95 336.798L200.169 240.848C201.455 233.701 196.954 226.987 189.881 225.687C182.808 224.387 176.163 228.936 174.877 236.083L156.658 332.033C155.372 339.18 159.873 345.894 166.947 347.194C167.804 347.411 168.447 347.411 169.304 347.411H169.304ZM214.744 470.868C213.887 463.937 219.031 457.439 226.105 456.573C229.534 456.356 237.25 450.292 237.679 434.697C238.108 423.218 232.963 417.37 228.462 415.854C224.39 414.554 220.317 416.503 217.102 421.052C213.693 425.788 213.038 430.096 212.188 435.678L212.172 435.78C211.529 440.545 210.672 446.176 208.1 452.241C203.17 463.937 195.24 470.651 180.664 474.983C173.805 477.149 166.518 473.25 164.589 466.319C162.445 459.388 166.304 452.024 173.162 450.075C182.095 447.281 183.008 445.127 184.278 442.131L184.308 442.061C185.454 439.359 185.919 436.486 186.462 433.133C186.528 432.723 186.596 432.306 186.666 431.881C187.738 424.734 189.238 415.854 195.883 406.107C205.528 392.029 221.389 386.181 236.393 391.162C253.326 396.577 264.043 414.121 263.4 435.347C262.757 463.72 245.61 480.398 229.105 482.347H227.605C220.96 482.347 215.602 477.582 214.744 470.868ZM151.886 495.585C160.098 492.176 164.021 482.685 160.647 474.387C157.273 466.088 147.881 462.124 139.668 465.534C131.456 468.943 127.533 478.434 130.907 486.732C134.281 495.031 143.673 498.995 151.886 495.585ZM428.013 525.23C435.086 524.147 441.516 529.128 442.588 536.276C443.66 543.423 438.73 549.921 431.228 550.787L400.577 555.119L408.722 581.76C410.651 588.691 407.008 595.838 400.149 598.004C398.863 598.437 397.577 598.654 396.291 598.654C390.932 598.654 385.788 595.188 384.073 589.557L374.856 559.018L341.205 563.783C340.776 563.999 340.133 563.999 339.49 563.999C333.274 563.999 327.702 559.234 326.844 552.737C325.772 545.589 330.702 539.091 337.776 538.008L367.355 533.893L359.638 508.336C357.709 501.405 361.353 494.257 368.212 492.091C375.071 490.142 382.144 493.824 384.287 500.755L393.29 530.211L428.013 525.23ZM309.054 535.194C311.84 525.231 310.126 515.268 304.338 507.037C297.908 497.724 286.762 491.876 273.902 491.01C250.753 489.493 228.247 503.788 222.675 523.931C219.888 533.894 221.603 543.858 227.39 552.088C233.82 561.401 244.966 567.249 257.826 568.116C258.362 568.116 258.952 568.17 259.541 568.224C260.131 568.278 260.72 568.332 261.256 568.332C283.333 568.332 303.91 554.254 309.054 535.194ZM284.405 528.046C282.476 535.411 271.759 542.991 259.755 542.125C254.611 541.692 250.539 539.742 248.395 536.927C247.109 535.194 246.895 533.028 247.538 530.646C249.467 523.715 259.112 516.567 270.473 516.567H272.187C277.331 517 281.404 518.95 283.547 521.765C284.619 523.715 285.048 525.664 284.405 528.046ZM66.2063 246.696C63.6343 246.696 61.0622 245.83 58.7044 244.314C42.4145 232.834 37.4847 219.189 44.1293 204.028C51.6312 186.268 67.7067 182.586 80.5672 179.77L81.8532 179.553C84.6396 178.904 87.2117 177.171 88.2834 175.005C89.5695 172.839 88.9264 171.323 88.7121 170.89C87.8547 168.507 87.4261 168.074 84.854 166.341C81.6389 164.175 76.9234 160.71 73.2796 153.562C67.7067 142.733 70.9218 128.655 80.7815 119.558C89.5695 111.327 97.7144 109.378 107.36 108.728C112.29 108.512 116.576 106.779 117.648 105.696C117.648 105.606 117.611 105.517 117.568 105.412C117.507 105.263 117.434 105.083 117.434 104.83C115.933 97.8988 120.434 90.9679 127.293 89.4518C134.152 87.9357 141.011 92.4841 142.512 99.415C144.655 109.811 141.226 116.959 138.01 121.291C129.437 132.77 113.361 134.503 108.646 134.719C103.073 135.152 101.144 135.802 97.9287 138.834C96.4284 140.134 95.9997 141.65 95.9997 142.083C96.6267 143.35 97.2538 143.794 99.2723 145.221L99.4291 145.332C103.287 147.931 108.86 152.046 112.504 161.793C115.719 170.24 115.076 179.553 110.789 187.567C105.859 196.447 97.2857 202.945 87.2117 205.111L85.9257 205.327C73.4939 208.143 69.6358 209.659 67.7067 214.424C66.8494 216.374 66.4207 217.89 73.7083 223.088C79.4955 227.203 80.7815 235.434 76.709 241.281C74.1369 244.747 70.2788 246.696 66.2063 246.696ZM109.289 343.512C114.433 338.53 114.647 330.3 109.718 325.102C104.788 319.904 96.6428 319.687 91.4986 324.669L33.1979 380.765L24.1956 369.286C19.9088 363.655 11.7639 362.572 6.19104 367.12C0.618185 371.452 -0.453519 379.682 4.04763 385.314L21.6236 408.056C23.767 410.871 27.1964 412.821 30.8402 413.037H31.6976C34.9127 413.037 38.1278 411.738 40.4855 409.355L109.289 343.512ZM84.8541 421.268C94.7138 423.217 102.644 429.498 107.36 438.595C117.005 457.005 110.361 483.212 92.3561 497.724C84.2111 504.438 74.9945 507.904 65.9922 507.904C63.6344 507.904 61.491 507.687 59.1333 507.254C49.2736 505.305 41.343 499.023 36.6275 489.927C27.1965 471.517 33.6268 445.309 51.6314 430.581C61.7054 422.351 73.7084 418.885 84.8541 421.268ZM64.2775 481.913C67.7069 482.563 72.2081 481.047 76.0662 477.798C85.4972 470.217 88.0693 457.222 84.4255 450.724C83.1394 448.558 81.639 447.258 79.4956 446.825C78.8526 446.609 78.4239 446.609 77.7809 446.609C74.5658 446.609 70.922 447.908 67.7069 450.724C58.4903 458.305 55.9182 471.3 59.3476 478.014C60.6337 480.18 62.134 481.48 64.2775 481.913ZM524.895 515.701C497.46 508.12 476.669 521.332 470.024 538.009C467.452 544.724 470.667 552.304 477.312 554.904C483.956 557.503 491.458 554.254 494.03 547.539C495.745 542.774 504.104 536.927 518.251 540.825C528.968 543.857 533.04 550.788 533.469 556.636C533.683 562.484 530.468 567.249 524.467 569.632C519.478 571.648 515.79 571.224 510.635 570.632L510.279 570.591L510.017 570.561L509.811 570.537L509.553 570.508L509.463 570.498C504.533 569.848 498.96 569.198 492.316 570.065C479.669 572.014 471.31 578.512 462.951 592.59C459.307 598.655 461.236 606.668 467.452 610.351C469.595 611.65 471.739 612.083 474.097 612.083C478.383 612.083 482.67 609.917 485.242 605.802C490.601 596.705 493.173 596.272 496.388 595.839C499.283 595.449 502.005 595.761 505.335 596.144C505.579 596.172 505.827 596.2 506.078 596.229L506.462 596.272C506.68 596.299 506.9 596.326 507.122 596.353C514.093 597.213 522.888 598.298 533.898 593.89C550.188 587.609 560.262 572.447 559.404 555.337C558.118 536.71 544.615 521.115 524.895 515.701ZM463.974 618.164C468.203 626.052 465.304 635.911 457.499 640.185C449.693 644.459 439.936 641.529 435.707 633.641C431.477 625.754 434.376 615.895 442.182 611.621C449.988 607.347 459.744 610.276 463.974 618.164ZM123.436 528.912C119.363 523.064 111.433 521.331 105.645 525.447C99.8581 529.562 98.1434 537.576 102.216 543.424L156.444 624.212C159.016 627.894 162.874 629.843 167.161 629.843C169.733 629.843 172.091 629.193 174.449 627.677C180.236 623.562 181.951 615.548 177.878 609.7L123.436 528.912ZM167.804 550.571C173.591 546.456 181.522 548.189 185.594 554.036L240.037 634.825C244.109 640.672 242.395 648.686 236.607 652.801C234.25 654.318 231.892 654.967 229.32 654.967C225.033 654.967 221.175 653.018 218.603 649.336L164.375 568.548C160.302 562.7 162.017 554.686 167.804 550.571ZM325.987 583.493C310.769 581.111 296.623 591.291 294.05 606.668C292.121 619.014 298.337 630.71 308.626 636.125C305.196 638.291 301.338 639.807 297.051 640.673C289.978 641.973 285.477 648.903 286.977 656.051C288.263 662.332 293.622 666.447 299.623 666.447C300.481 666.447 301.338 666.447 302.195 666.231C330.917 660.599 342.277 638.724 346.564 626.378C347.207 624.429 347.85 622.479 348.279 620.53C348.707 619.231 348.707 617.931 348.707 616.632C348.707 616.523 348.761 616.361 348.815 616.198C348.868 616.036 348.922 615.874 348.922 615.765C351.279 600.387 340.991 585.876 325.987 583.493ZM535.826 184.102C534.969 184.318 534.112 184.318 533.254 184.318C527.253 184.318 521.894 179.987 520.608 173.922C519.108 166.775 523.823 159.844 530.682 158.544C534.969 157.678 538.827 156.162 542.256 153.996C531.968 148.581 525.752 136.885 527.681 124.54C530.253 109.162 544.4 98.982 559.618 101.365C574.836 103.964 584.91 118.259 582.552 133.636C582.552 133.745 582.499 133.907 582.445 134.07C582.392 134.232 582.338 134.394 582.338 134.503C582.338 135.802 582.338 137.102 581.909 138.401C581.481 140.351 580.838 142.3 580.195 144.249C575.908 156.595 564.548 178.471 535.826 184.102ZM594.556 221.788C603.434 221.788 610.632 214.515 610.632 205.544C610.632 196.572 603.434 189.3 594.556 189.3C585.678 189.3 578.481 196.572 578.481 205.544C578.481 214.515 585.678 221.788 594.556 221.788ZM612.561 364.305C614.918 357.591 622.42 354.125 629.065 356.508C635.709 358.89 639.353 366.254 636.567 373.185L607.845 453.107C606.13 458.522 601.201 461.771 595.842 461.771C594.556 461.771 593.056 461.337 591.555 460.904C584.911 458.522 581.481 450.941 583.839 444.227L612.561 364.305ZM591.811 498.359C599.174 493.345 601.12 483.249 596.158 475.809C591.196 468.369 581.205 466.403 573.842 471.417C566.479 476.431 564.533 486.527 569.495 493.967C574.457 501.407 584.448 503.374 591.811 498.359ZM344.191 374.61C352.257 378.358 355.788 388.004 352.079 396.155C348.37 404.305 338.824 407.874 330.758 404.126C322.692 400.378 319.161 390.732 322.87 382.581C326.579 374.431 336.125 370.862 344.191 374.61ZM173.162 384.23C172.948 382.714 172.734 381.198 172.091 379.898V379.249C169.947 367.12 156.229 360.405 141.44 364.304C126.65 368.202 116.576 381.198 118.72 393.327C120.435 402.207 128.151 408.272 138.01 409.138C136.081 410.871 133.724 412.603 130.937 414.336C124.936 418.018 122.792 426.032 126.436 432.096C128.794 436.212 133.081 438.378 137.582 438.378C139.725 438.378 142.083 437.728 144.226 436.428C168.876 421.484 173.162 400.691 173.591 389.428C173.162 387.912 173.162 385.963 173.162 384.23ZM632.28 258.609C626.707 254.061 618.562 254.927 614.275 260.558C609.774 266.19 610.631 274.42 616.204 278.752C616.204 278.752 624.778 285.899 618.776 299.111C615.776 305.609 618.776 313.406 625.207 316.222C626.921 317.088 628.85 317.305 630.565 317.305C635.495 317.305 640.21 314.489 642.354 309.724C653.499 284.816 640.639 265.323 632.28 258.609ZM593.484 329.433C591.769 329.433 589.84 329.217 588.126 328.35C581.695 325.535 578.909 317.737 581.695 311.24C583.839 306.691 584.911 303.009 584.482 299.977C583.625 294.129 579.123 290.88 579.123 290.88C573.551 286.548 572.693 278.318 577.194 272.687C581.481 267.055 589.626 266.189 595.199 270.737C600.557 274.853 608.274 284.166 609.988 296.511C611.06 303.876 609.56 312.323 605.273 321.853C603.13 326.618 598.414 329.433 593.484 329.433ZM16.0508 319.686C17.7655 319.686 19.6946 319.253 21.4093 318.603C27.8395 315.571 30.6259 307.99 27.8395 301.493C22.4111 289.738 28.9071 282.768 30.1972 281.384C30.3334 281.238 30.4116 281.154 30.4116 281.133C35.9845 276.585 36.8418 268.354 32.3407 262.94C27.8395 257.308 19.6946 256.442 14.3361 260.99C5.97677 267.704 -6.88366 287.198 4.47639 312.322C6.6198 316.654 11.3353 319.686 16.0508 319.686ZM58.2757 330.732C56.561 331.382 54.632 331.815 52.9172 331.815C48.2017 331.815 43.4862 328.999 41.1285 324.234C37.056 314.921 35.3413 306.474 36.413 298.893C38.3421 286.548 46.0583 277.451 51.2025 273.119C56.561 268.571 64.706 269.437 69.2071 275.068C73.7083 280.483 72.8509 288.714 67.278 293.262C67.278 293.262 62.7769 296.511 61.9195 302.359C61.4909 305.391 62.5626 309.073 64.706 313.621C67.4924 320.119 64.706 327.7 58.2757 330.732Z" fill="url(#paint0_linear)"/>
<defs>
<linearGradient id="paint0_linear" x1="-17.7676" y1="652.855" x2="322.896" y2="369.542" gradientUnits="userSpaceOnUse">
<stop stop-color="white" stop-opacity="0.8"/>
<stop offset="1" stop-color="white" stop-opacity="0.4"/>
</linearGradient>
</defs>
</svg>
