<svg width="279" height="23" viewBox="0 0 279 23" fill="none" xmlns="http://www.w3.org/2000/svg">
<g filter="url(#filter0_d)">
<path fill-rule="evenodd" clip-rule="evenodd" d="M172.755 8.47166C163.546 8.47081 154.628 8.42235 145.89 8.37486C100.516 8.12827 59.9781 7.90797 8.50948 14.5172C6.31833 14.7986 4.31396 13.2504 4.03259 11.0592C3.75122 8.86809 5.2994 6.86372 7.49054 6.58235C59.5277 -0.0998783 100.637 0.1255 146.038 0.37441C154.827 0.422599 163.778 0.47167 173 0.47167C173.168 0.471669 173.336 0.48229 173.503 0.503467C180.423 1.38125 196.814 0.982905 213.84 0.534171L215.224 0.497647C231.403 0.0703803 247.893 -0.365129 255.363 0.498105C255.327 0.494015 255.345 0.494807 255.464 0.50011C255.562 0.504498 255.73 0.511972 255.993 0.522323L256.183 0.529738C256.629 0.547118 257.2 0.569341 257.845 0.59978C259.324 0.669537 261.252 0.784724 263.199 0.997409C265.105 1.20554 267.215 1.52577 268.987 2.05658C269.863 2.31911 270.852 2.6892 271.738 3.24313C272.566 3.76103 273.832 4.77136 274.334 6.51204C274.593 7.40883 274.633 8.736 273.804 9.97845C273.085 11.0575 272.091 11.4793 271.617 11.6384C270.72 11.9393 269.861 11.8965 269.556 11.8809C268.73 11.8385 267.712 11.661 266.828 11.4955C266.288 11.3944 265.733 11.2854 265.168 11.1743C263.647 10.8752 262.054 10.5619 260.487 10.3536C259.956 10.2829 259.464 10.23 259.016 10.196C259.148 11.698 258.421 13.2115 257.029 14.0146C255.115 15.1185 252.669 14.462 251.565 12.5484C250.869 11.3408 250.204 9.8114 250.216 8.14121C242.082 7.7925 228.517 8.15006 214.488 8.51987L214.051 8.53139C197.623 8.96438 180.577 9.40679 172.755 8.47166ZM269.949 3.89043C270.031 3.88898 270.045 3.89546 269.966 3.89137C269.96 3.8911 269.955 3.89078 269.949 3.89043Z" fill="#FF5E98"/>
</g>
<defs>
<filter id="filter0_d" x="-0.000427246" y="0.00088501" width="278.499" height="22.5495" filterUnits="userSpaceOnUse" color-interpolation-filters="sRGB">
<feFlood flood-opacity="0" result="BackgroundImageFix"/>
<feColorMatrix in="SourceAlpha" type="matrix" values="0 0 0 0 0 0 0 0 0 0 0 0 0 0 0 0 0 0 127 0"/>
<feOffset dy="4"/>
<feGaussianBlur stdDeviation="2"/>
<feColorMatrix type="matrix" values="0 0 0 0 1 0 0 0 0 0.654167 0 0 0 0 0.820167 0 0 0 0.6 0"/>
<feBlend mode="normal" in2="BackgroundImageFix" result="effect1_dropShadow"/>
<feBlend mode="normal" in="SourceGraphic" in2="effect1_dropShadow" result="shape"/>
</filter>
</defs>
</svg>
