<?xml version="1.0" encoding="UTF-8"?>
<svg width="36px" height="39px" viewBox="0 0 36 39" version="1.1" xmlns="http://www.w3.org/2000/svg" xmlns:xlink="http://www.w3.org/1999/xlink">
    <!-- Generator: Sketch 64 (93537) - https://sketch.com -->
    <title>Group 30</title>
    <desc>Created with Sketch.</desc>
    <g id="Page-1" stroke="none" stroke-width="1" fill="none" fill-rule="evenodd">
        <g id="Group-30" transform="translate(-1.000000, 0.000000)">
            <path d="M6.04924764,0.00301067467 C5.57284011,-0.0132362065 5.0985818,0.024910805 4.51958962,0.193827003 C3.61776128,0.45692799 2.78950829,0.981847313 2.15731078,1.77796483 C0.943175807,3.30686085 0.935545704,4.90235541 1.43982949,6.29002285 C2.19819763,8.37672946 3.56717324,10.2342578 5.61039874,12.3230733 L6.00142042,12.717549 L6.65327247,13.355777 C6.87435326,13.5683054 7.10752379,13.7885891 7.377663,14.0405379 L9.52662227,16.0273114 L9.89409893,16.3761919 L9.89409893,16.3761919 L10.148303,16.6240286 L10.0751978,16.6665167 L9.85688884,16.8074749 L9.80169697,16.8457714 C9.1208826,17.3368567 8.57031677,17.977371 8.19531229,18.7145983 L8.1545307,18.7971058 C8.07584866,18.9629722 8.00515983,19.1351325 7.9430831,19.3133761 C7.51479813,20.543096 7.58476152,21.7043982 7.9314832,22.8526563 C8.14417545,23.5570198 8.47090495,24.2640034 8.9108666,25.0272769 C10.329418,27.4881766 12.0363138,29.7404408 14.6821221,32.8238926 L17.9970647,36.6427756 L18.592607,37.3466593 L18.592607,37.3466593 C20.2984154,39.3831799 23.4021592,39.5717893 25.3439215,37.7274435 L25.5199603,37.551029 C26.2011035,36.8308739 26.6059442,35.9405803 26.7287189,35.0179908 L26.7508485,34.8114 L26.9282725,34.9338121 C27.4964373,35.3210325 28.0506034,35.6862738 28.6177574,36.0473968 C29.0654754,36.3325135 29.6721164,36.6267852 30.2020021,36.827163 C30.7689359,37.0412144 31.2403905,37.1728764 31.9209567,37.2076903 C32.411915,37.2325034 32.9146365,37.1937609 33.4856011,37.0300691 C34.6177051,36.7061821 35.6728134,35.9714236 36.3256774,34.7229926 C36.9580114,33.5144701 36.9728118,32.2982421 36.6412393,31.2285319 C36.476372,30.6969445 36.250628,30.2764176 35.9832672,29.8984821 C35.7687501,29.5943762 35.5317655,29.3170127 35.1975267,28.9578105 L35.0219566,28.7708869 C34.8092137,28.5462583 34.5640214,28.2943696 34.2902798,28.018137 L33.6691411,27.3978572 L33.2891515,27.0247714 L33.4049224,26.9032979 C35.0153485,25.1087865 34.957206,22.3757342 33.2623544,20.6509809 L32.6439867,20.0268045 C28.5244416,15.9030931 24.4051156,12.4762149 16.812304,6.59861297 L14.7453695,5.00973573 L13.3475001,3.95384899 C11.9729372,2.9241092 10.7022274,1.99948316 9.84077281,1.4200268 C9.36179871,1.09785949 8.6965102,0.733648763 8.11252537,0.48738941 C7.44428798,0.205572675 6.85923567,0.0305636382 6.04924764,0.00301067467 Z M5.92788485,3.34380429 C6.24956061,3.35474657 6.56819636,3.48263314 6.73246,3.55190829 C7.1392903,3.72346371 7.60786485,3.98922086 7.86901697,4.16487686 L8.39453539,4.52613505 L8.95708557,4.92480824 C10.7204556,6.18841648 13.0916087,8.00115516 14.0808424,8.76549514 L16.2463996,10.4433623 C21.2958009,14.3719126 26.296878,18.4135436 30.7589273,22.9545086 C31.2249455,23.4287486 31.2416424,24.2155457 30.7963515,24.7117371 C30.3510606,25.20804 29.6122485,25.2258686 29.1462303,24.7516286 C24.7982386,20.3267861 19.9065465,16.3700533 14.8743007,12.4543515 L12.1772749,10.3672714 L10.9982479,9.46789629 L10.9982479,9.46789629 L11.6823976,10.1069837 L12.3763582,10.7460266 C13.1252,11.43402 13.8621697,12.1109486 14.4784606,12.7391829 L16.9569386,15.2700043 L19.4303212,17.80116 C22.1725394,20.6084914 24.9119723,23.4129396 27.6707723,26.2029404 L30.5288545,29.0770629 L31.5952727,30.1291714 C31.7947152,30.3289257 32.001169,30.5377429 32.1952548,30.7377613 L32.4746848,31.0289571 C32.7160424,31.2839057 32.9830788,31.5747343 33.1326606,31.7867829 L33.2065105,31.9019109 C33.2489406,31.9754403 33.2961297,32.072196 33.3323333,32.1889286 C33.3933636,32.3858229 33.4649879,32.7899743 33.2433212,33.2136257 C33.0262606,33.6286971 32.6764303,33.7756714 32.5042788,33.8249229 C32.3282121,33.8754 32.1782848,33.8732829 32.1033212,33.8694943 C31.8419273,33.8561229 31.5789212,33.7587343 31.4593939,33.7136057 C31.1494061,33.5963829 30.7540909,33.4060629 30.5166485,33.2548543 C28.4814277,31.9589718 26.5581342,30.5438108 24.6770808,29.1313981 L23.3648182,28.1436257 C21.0511939,26.4013286 18.772,24.7029343 16.3228424,23.2052229 C15.8716788,22.9293257 15.276,22.5940371 14.6768667,22.3076657 C14.3728667,22.1624743 14.0863697,22.0387886 13.8288909,21.94218 L13.917097,22.0984029 C15.3889636,24.6517543 17.3451167,27.02568 19.4021453,29.4022446 L20.5318606,30.6999086 C21.3638303,31.6526229 22.2007515,32.6111314 23.018097,33.5870229 C23.4471515,34.09926 23.4050061,34.8848314 22.9240182,35.3418 C22.4430303,35.7986571 21.7052545,35.7538629 21.2762,35.2416257 C20.7209682,34.5788207 20.1400864,33.9070527 19.5463795,33.2257105 L17.8711129,31.30416 C15.7081702,28.808802 13.5330305,26.1835812 11.9278315,23.3988857 C11.6173485,22.86024 11.38328,22.3651629 11.2473782,21.9151029 C11.1198248,21.4926771 11.0243527,20.9333057 11.2167248,20.3809543 C11.4430091,19.7312143 11.9463364,19.4085171 12.399803,19.2919629 C12.8040424,19.1881114 13.2157091,19.227 13.540897,19.2877286 C14.2082,19.4124171 14.9670485,19.7218543 15.6323939,20.03976 C16.3161636,20.36658 16.9816242,20.7416486 17.4851818,21.0496371 C19.3325576,22.1793 21.0782545,23.4129257 22.7754727,24.6662743 L20.2864871,22.1247139 L17.8017333,19.5819 C16.1558727,17.8969886 14.5112788,16.2133029 12.864497,14.5348543 C12.3919152,14.0532043 11.8328178,13.5312388 11.2164392,12.9635412 L10.8275703,12.6060257 C10.0746521,11.9143886 9.25936788,11.1653657 8.47929697,10.3882963 C6.94622727,8.86115657 5.38630424,7.07292857 4.69874606,5.18106086 L4.66378708,5.07118301 C4.59349492,4.81708569 4.51709543,4.292604 4.8965303,3.81480171 C5.28513212,3.32544086 5.81809939,3.34006029 5.92788485,3.34380429 Z" id="Shape" fill="#FF5E98" fill-rule="nonzero"></path>
            <path d="M22.7754727,24.6662743 C21.1141818,22.9730057 19.4573818,21.27684 17.8017333,19.5819 C16.1558727,17.8969886 14.5112788,16.2133029 12.864497,14.5348543 C12.2973988,13.9568743 11.6057182,13.32084 10.8399721,12.6173914 L10.8275703,12.6060257 C10.0746521,11.9143886 9.25936788,11.1653657 8.47929697,10.3882963 C6.94622727,8.86115657 5.38630424,7.07292857 4.69874606,5.18106086 C4.63634545,5.00934943 4.44810727,4.37947714 4.8965303,3.81480171 C5.28513212,3.32544086 5.81809939,3.34006029 5.92788485,3.34380429 C6.24956061,3.35474657 6.56819636,3.48263314 6.73246,3.55190829 C7.1392903,3.72346371 7.60786485,3.98922086 7.86901697,4.16487686 C9.56699515,5.30701971 12.8659939,7.826832 14.0808424,8.76549514 C19.8559212,13.2273514 25.6594424,17.7648343 30.7589273,22.9545086 C31.2249455,23.4287486 31.2416424,24.2155457 30.7963515,24.7117371 C30.3510606,25.20804 29.6122485,25.2258686 29.1462303,24.7516286 C24.177097,19.6946657 18.4978242,15.2491114 12.7101939,10.7774606 C12.3102152,10.468458 11.6980697,9.99869743 10.9982479,9.46789629 C11.4528315,9.897576 11.912597,10.3199906 12.3646473,10.7352737 L12.3763582,10.7460266 C13.1252,11.43402 13.8621697,12.1109486 14.4784606,12.7391829 C16.133303,14.4258771 17.7822727,16.11402 19.4303212,17.80116 C23.0866121,21.5442686 26.7379515,25.2822514 30.4368485,28.9876971 C30.4325879,28.9834629 30.4563091,29.0064171 30.5288545,29.0770629 C30.5924182,29.1390171 30.6821212,29.2264886 30.7901333,29.3322343 C31.005697,29.5435029 31.2949576,29.8284257 31.5952727,30.1291714 C31.8944364,30.4288029 32.2093758,30.7488257 32.4746848,31.0289571 C32.7160424,31.2839057 32.9830788,31.5747343 33.1326606,31.7867829 C33.1811394,31.8553114 33.2719939,31.9943743 33.3323333,32.1889286 C33.3933636,32.3858229 33.4649879,32.7899743 33.2433212,33.2136257 C33.0262606,33.6286971 32.6764303,33.7756714 32.5042788,33.8249229 C32.3282121,33.8754 32.1782848,33.8732829 32.1033212,33.8694943 C31.8419273,33.8561229 31.5789212,33.7587343 31.4593939,33.7136057 C31.1494061,33.5963829 30.7540909,33.4060629 30.5166485,33.2548543 C28.1422242,31.7429914 25.9201455,30.0687771 23.7397515,28.4259857 C23.6145818,28.3317171 23.4896424,28.23756 23.3648182,28.1436257 C21.0511939,26.4013286 18.772,24.7029343 16.3228424,23.2052229 C15.8716788,22.9293257 15.276,22.5940371 14.6768667,22.3076657 C14.3728667,22.1624743 14.0863697,22.0387886 13.8288909,21.94218 C13.8565273,21.9922114 13.8858909,22.0442486 13.917097,22.0984029 C15.6565758,25.116 18.0724545,27.8829943 20.5318606,30.6999086 C21.3638303,31.6526229 22.2007515,32.6111314 23.018097,33.5870229 C23.4471515,34.09926 23.4050061,34.8848314 22.9240182,35.3418 C22.4430303,35.7986571 21.7052545,35.7538629 21.2762,35.2416257 C20.5358909,34.3578857 19.7499818,33.4582114 18.9488727,32.5411543 C16.4490485,29.6794457 13.8005636,26.6476971 11.9278315,23.3988857 C11.6173485,22.86024 11.38328,22.3651629 11.2473782,21.9151029 C11.1198248,21.4926771 11.0243527,20.9333057 11.2167248,20.3809543 C11.4430091,19.7312143 11.9463364,19.4085171 12.399803,19.2919629 C12.8040424,19.1881114 13.2157091,19.227 13.540897,19.2877286 C14.2082,19.4124171 14.9670485,19.7218543 15.6323939,20.03976 C16.3161636,20.36658 16.9816242,20.7416486 17.4851818,21.0496371 C19.3325576,22.1793 21.0782545,23.4129257 22.7754727,24.6662743 Z" id="Path" fill="#FFFFFF"></path>
        </g>
    </g>
</svg>