<svg width="271" height="15" viewBox="0 0 271 15" fill="none" xmlns="http://www.w3.org/2000/svg">
<path fill-rule="evenodd" clip-rule="evenodd" d="M168.755 8.47166C159.546 8.47081 150.628 8.42235 141.89 8.37486C96.5162 8.12828 55.9781 7.90797 4.50948 14.5172C2.31833 14.7986 0.313959 13.2504 0.0325881 11.0592C-0.248783 8.86809 1.2994 6.86372 3.49054 6.58235C55.5277 -0.0998783 96.6366 0.1255 142.038 0.37441C150.827 0.422599 159.778 0.47167 169 0.47167C169.168 0.471669 169.336 0.48229 169.503 0.503467C176.423 1.38125 192.814 0.982905 209.84 0.534171L211.224 0.497647C227.403 0.0703803 243.893 -0.365129 251.363 0.498105C251.327 0.494015 251.345 0.494807 251.464 0.50011C251.562 0.504498 251.73 0.511972 251.993 0.522323L252.183 0.529738C252.629 0.547118 253.2 0.569341 253.845 0.59978C255.324 0.669537 257.252 0.784724 259.199 0.997409C261.105 1.20554 263.215 1.52577 264.987 2.05658C265.863 2.31911 266.852 2.6892 267.738 3.24313C268.566 3.76103 269.832 4.77136 270.334 6.51204C270.593 7.40883 270.633 8.736 269.804 9.97845C269.085 11.0575 268.091 11.4793 267.617 11.6384C266.72 11.9393 265.861 11.8965 265.556 11.8809C264.73 11.8385 263.712 11.661 262.828 11.4955C262.288 11.3944 261.733 11.2854 261.168 11.1743C259.647 10.8752 258.054 10.5619 256.487 10.3536C255.956 10.2829 255.464 10.23 255.016 10.196C255.148 11.698 254.421 13.2115 253.029 14.0146C251.115 15.1185 248.669 14.462 247.565 12.5484C246.869 11.3408 246.204 9.8114 246.216 8.14121C238.082 7.7925 224.517 8.15006 210.488 8.51987L210.051 8.53139C193.623 8.96438 176.577 9.40679 168.755 8.47166ZM265.949 3.89043C266.031 3.88898 266.045 3.89546 265.966 3.89137C265.96 3.8911 265.955 3.89078 265.949 3.89043Z" fill="#FF5E98"/>
</svg>
