<svg width="26" height="15" viewBox="0 0 26 15" fill="none" xmlns="http://www.w3.org/2000/svg">
<path fill-rule="evenodd" clip-rule="evenodd" d="M24.671 1.00658C24.8486 0.414473 24.671 0 23.842 0H21.0789C20.3683 0 20.0525 0.375 19.8749 0.789474C19.8749 0.789474 18.4736 4.22368 16.4802 6.43421C15.8289 7.08553 15.5526 7.2829 15.1973 7.2829C15.0197 7.2829 14.7631 7.08553 14.7631 6.49342V1.00658C14.7631 0.296052 14.5657 0 13.9736 0H9.63154C9.19733 0 8.92102 0.335526 8.92102 0.631578C8.92102 1.30263 9.90785 1.46053 10.0263 3.31579V7.38158C10.0263 8.26974 9.86838 8.42763 9.51312 8.42763C8.58549 8.42763 6.29603 4.99342 4.95393 1.04605C4.67761 0.31579 4.42103 0 3.71051 0H0.947364C0.157894 0 0 0.375 0 0.789474C0 1.51974 0.927628 5.15132 4.36182 9.94737C6.65129 13.2237 9.86838 15 12.7894 15C14.546 15 14.7631 14.6053 14.7631 13.9342V11.4474C14.7631 10.6579 14.921 10.5 15.4934 10.5C15.9078 10.5 16.5986 10.6974 18.2368 12.2763C20.1118 14.1513 20.4275 15 21.4736 15H24.2367C25.0262 15 25.4209 14.6053 25.1841 13.8355C24.9275 13.0658 24.0394 11.9408 22.8552 10.5987C22.2039 9.82895 21.2368 9.01974 20.9604 8.60526C20.546 8.07237 20.6644 7.83553 20.9604 7.38158C20.9604 7.36184 24.3354 2.625 24.671 1.00658V1.00658Z" fill="#1CE6E5"/>
</svg>
