<?xml version="1.0" encoding="UTF-8"?>
<svg width="27px" height="30px" viewBox="0 0 27 30" version="1.1" xmlns="http://www.w3.org/2000/svg" xmlns:xlink="http://www.w3.org/1999/xlink">
    <!-- Generator: Sketch 64 (93537) - https://sketch.com -->
    <title>Group 17</title>
    <desc>Created with Sketch.</desc>
    <g id="09-Logs-&amp;-Chats" stroke="none" stroke-width="1" fill="none" fill-rule="evenodd">
        <g id="Group-30" transform="translate(-25.000000, 0.000000)" fill-rule="nonzero">
            <g id="Group-17" transform="translate(24.997197, 0.950779)">
                <path d="M0.0117899334,4.39214462 C0.0800926376,5.4378192 0.441076483,6.20290711 1.11710873,7.16047489 L1.29966531,7.41299097 L1.40686814,7.55605106 C2.1527074,8.54068594 3.21367209,9.72688527 4.76766791,11.3055822 L5.5418028,12.0832214 C4.72854575,12.9598949 4.34059993,14.1798626 4.43713907,15.5145623 C4.54151985,16.9576762 5.23506054,18.2737589 6.58635137,20.0881845 L7.00225374,20.6347636 L7.13376553,20.7956301 L12.5045756,26.9195854 L12.6320124,27.0560784 L12.720599,27.1452287 L12.85675,27.2739454 C14.3593392,28.6081361 16.6292216,28.6228918 18.1498463,27.288683 L18.3109128,27.1394879 C18.7791289,26.6816303 19.1123672,26.133258 19.3072128,25.5466699 L19.3468028,25.4142214 L20.5438466,26.2415914 C24.5510986,29.0233643 29.0480449,23.5798311 25.6963567,20.1719147 L25.2036063,19.7019085 L24.6458028,19.1772214 L24.6868814,19.1131233 C25.6613551,17.4521858 25.3175262,15.2827157 23.7869904,14.0136613 L20.539951,11.334155 C15.5527209,7.24044523 11.8742537,4.33296722 9.47411578,2.58947662 L8.95820183,2.21850175 C7.49334457,1.17727315 6.52304834,0.585862341 5.67080249,0.283286812 C2.92520694,-0.691490624 -0.21692087,0.890715578 0.0117899334,4.39214462 Z" id="Path" fill="#FF5E98"></path>
                <path d="M4.66708474,3.11039676 C5.18051179,3.29268039 5.99919898,3.79586934 7.20692746,4.6542846 L7.71096632,5.01667747 C10.5411595,7.07256568 15.2577315,10.8386825 21.8721351,16.3230614 C22.2972839,16.6755766 22.3561652,17.3059978 22.0036501,17.7311466 C21.651135,18.1562954 21.0207138,18.2151767 20.5955649,17.8626616 L18.1119446,15.8107155 L15.9516827,14.0398952 C13.7045543,12.2058026 11.760256,10.6457245 10.119519,9.36017403 L9.0828028,8.55322142 L10.1479252,9.60230132 L11.106691,10.5319526 C11.8876718,11.2847283 12.7520561,12.1079894 13.7075244,13.0098127 L23.5053094,22.2244373 C24.40448,23.0737379 23.2644433,24.4782065 22.2483998,23.7728875 L20.9359357,22.8666773 L19.6174314,21.967119 C15.1982499,18.9721891 12.0446374,17.0478724 10.2017398,16.2130344 L9.8828028,16.0742214 L9.91234478,16.1199688 C10.1302381,16.4602553 10.418962,16.8728746 10.7744219,17.340882 L10.9308358,17.5447983 L16.2634079,23.6224383 C16.6276559,24.0375791 16.5863992,24.6693985 16.1712584,25.0336464 C15.7880515,25.3698753 15.2202191,25.3605854 14.8486368,25.0306472 L14.7600502,24.9414969 L9.38924015,18.8175416 L8.9924027,18.2962813 C7.9947775,16.9567349 7.48109789,16.0139601 7.42932224,15.298137 C7.31026042,13.6520507 8.66256013,13.4729835 10.3007481,14.0882474 C11.0901464,14.3847264 12.1486436,14.9146324 13.4808201,15.6798795 L13.8628028,15.9012214 L11.6706569,13.8366215 L9.68628666,11.9414525 C6.53432138,8.90265895 4.72107503,6.99122073 3.72966129,5.65369579 L3.56788926,5.43025097 C3.21352864,4.92831588 3.03058991,4.58208664 3.00541043,4.19660351 C2.93076803,3.05387183 3.87349077,2.8286446 4.66708474,3.11039676 Z" id="Path" fill="#FFFFFF"></path>
            </g>
        </g>
    </g>
</svg>